<svg viewBox="0 0 25 24" fill="none" xmlns="http://www.w3.org/2000/svg">
<path d="M21 12.2045C21 11.5664 20.9448 10.9527 20.8423 10.3636H12.6735V13.8491H17.3414C17.1364 14.97 16.5213 15.9191 15.5988 16.5573V18.8236H18.4137C20.0538 17.2527 21 14.9455 21 12.2045Z" fill="#4285F4"/>
<path d="M12.6735 21C15.0153 21 16.9787 20.1982 18.4137 18.8236L15.5988 16.5573C14.8261 17.0973 13.8404 17.4245 12.6735 17.4245C10.4184 17.4245 8.50232 15.8455 7.81633 13.7182H4.93043V16.0418C6.35761 18.9791 9.28293 21 12.6735 21Z" fill="#34A853"/>
<path d="M7.81633 13.71C7.64286 13.17 7.54035 12.5973 7.54035 12C7.54035 11.4027 7.64286 10.83 7.81633 10.29V7.96636H4.93043C4.33905 9.17727 4 10.5436 4 12C4 13.4564 4.33905 14.8227 4.93043 16.0336L7.17764 14.2173L7.81633 13.71Z" fill="#FBBC05"/>
<path d="M12.6735 6.58364C13.9508 6.58364 15.0863 7.04182 15.993 7.92545L18.4768 5.34818C16.9708 3.89182 15.0153 3 12.6735 3C9.28293 3 6.35761 5.02091 4.93043 7.96636L7.81633 10.29C8.50232 8.16273 10.4184 6.58364 12.6735 6.58364Z" fill="#EA4335"/>
</svg>
