<svg viewBox="0 0 32 32" fill="none" xmlns="http://www.w3.org/2000/svg">
<mask id="mask0_1362_1092" style="mask-type:alpha" maskUnits="userSpaceOnUse" x="0" y="0" width="32" height="32">
<circle cx="16" cy="16" r="16" fill="white"/>
</mask>
<g mask="url(#mask0_1362_1092)">
<path d="M18.1623 7.77524C18.1623 7.77524 16.9365 5.45835 13.7875 6.11827C10.6385 6.77819 10.1587 9.38738 10.0988 9.71698C10.064 9.90778 9.98902 10.9127 9.93235 11.7251C9.88609 12.3836 9.578 12.9922 9.0845 13.4305C7.91063 14.4723 5.81898 16.7462 5.8405 19.7036C5.87062 23.8123 10.579 24.742 11.1188 24.742C11.6585 24.742 19.3362 25.2218 22.2452 24.2621C25.1542 23.3023 27.1336 20.0336 25.5143 16.4944C23.895 12.9556 22.5454 12.2057 22.0655 11.0662C21.5857 9.92643 21.6014 8.76333 20.8361 8.09731C19.7938 7.19028 18.163 7.77488 18.163 7.77488L18.1623 7.77524Z" fill="#A79BF2"/>
<path d="M17.8955 20.1863H13.7212V25.9122H17.8955V20.1863Z" fill="#F2F2F2"/>
<path d="M10.6987 25.1322C10.6987 25.1322 13.8778 23.8127 14.7773 22.6729C15.6772 21.5331 17.2065 22.0754 17.6264 23.0491C18.0464 24.0225 20.2955 24.8922 21.1653 25.1322C21.1653 25.1322 16.6068 29.0608 10.6987 25.1322Z" fill="#F2F2F2"/>
<path d="M13.7212 20.1863C13.7212 20.1863 14.9417 21.9458 16.3361 21.901C17.7306 21.8562 17.8955 20.1863 17.8955 20.1863H13.7212Z" fill="#191919"/>
<path d="M5 32V31.5973C5 29.6717 5.78867 27.8034 7.24982 26.5489C8.10341 25.8158 9.23424 25.2265 10.6983 25.1322C10.6983 25.1322 11.832 25.672 15.8087 25.672C19.7854 25.672 21.1648 25.1322 21.1648 25.1322C21.1648 25.1322 23.0595 25.4198 24.8926 27.4057C26.0259 28.6334 26.6231 30.2631 26.6231 31.9337V32H5Z" fill="#1A1A1A"/>
<path d="M15.8457 8.29272C18.1981 8.29272 20.1079 10.2025 20.1079 12.5549V16.4911C20.1079 18.8435 18.1981 20.7534 15.8457 20.7534C13.4933 20.7534 11.5835 18.8435 11.5835 16.4911V12.5549C11.5835 10.2025 13.4933 8.29272 15.8457 8.29272Z" fill="#F2F2F2"/>
<path d="M20.4904 13.3985C17.8138 11.0554 17.756 9.80232 17.756 9.80232C17.756 9.80232 16.0818 11.9815 12.3031 11.5766C12.3031 11.5766 12.5054 14.0731 10.616 13.9609C10.616 13.9609 9.59705 7.69668 15.9692 7.68556C21.345 7.67623 20.4904 13.3989 20.4904 13.3989V13.3985Z" fill="#A79BF2"/>
<path d="M11.5829 15.5917C11.5829 15.5917 11.3731 13.5262 10.3233 13.8561C9.27353 14.1861 9.51346 17.14 11.5829 17.14V15.5917Z" fill="#F2F2F2"/>
<path d="M20.1079 15.5917C20.1079 15.5917 20.3177 13.5262 21.3675 13.8561C22.4173 14.1861 22.1773 17.14 20.1079 17.14V15.5917Z" fill="#F2F2F2"/>
<path d="M14.2919 14.3443C14.2919 14.6011 14.0839 14.8091 13.8271 14.8091C13.5703 14.8091 13.3623 14.6011 13.3623 14.3443C13.3623 14.0875 13.5703 13.8795 13.8271 13.8795C14.0839 13.8795 14.2919 14.0875 14.2919 14.3443Z" fill="#191919"/>
<path d="M17.7861 14.8091C18.0428 14.8091 18.2509 14.601 18.2509 14.3443C18.2509 14.0876 18.0428 13.8795 17.7861 13.8795C17.5294 13.8795 17.3213 14.0876 17.3213 14.3443C17.3213 14.601 17.5294 14.8091 17.7861 14.8091Z" fill="#191919"/>
<path d="M15.9898 16.7045C15.776 16.7045 15.5544 16.6547 15.4665 16.4689C15.3191 16.158 15.4414 15.3201 15.4558 15.2255L15.7075 15.2638C15.6577 15.5913 15.6107 16.178 15.6968 16.3595C15.7552 16.4829 16.1365 16.4599 16.3897 16.3957L16.4528 16.6429C16.3872 16.6597 16.1924 16.7045 15.9898 16.7045Z" fill="#191919"/>
<path d="M14.187 17.2386C15.0818 17.8842 16.7851 17.9674 17.6509 17.2386C17.0078 18.2977 14.8731 18.2192 14.187 17.2386Z" fill="#191919"/>
<path d="M14.7517 12.8114C13.9296 12.8189 13.3404 12.9237 12.6374 13.3027L12.6177 13.2863C12.8702 12.9839 13.2087 12.7425 13.6004 12.6633C13.9902 12.584 14.398 12.6378 14.7621 12.7881L14.7513 12.8114H14.7517Z" fill="#191919"/>
<path d="M16.5835 12.7874C17.261 12.3412 18.3212 12.5747 18.7232 13.2845L18.7078 13.3046C18.0916 12.8236 17.2922 12.7497 16.5835 12.787V12.7874Z" fill="#191919"/>
</g>
</svg>
