<svg viewBox="0 0 24 24" fill="none" xmlns="http://www.w3.org/2000/svg">
<mask id="path-1-inside-1_3876_4689" fill="white">
<path d="M20.4853 3.51472C25.1716 8.20101 25.1716 15.799 20.4853 20.4853C15.799 25.1716 8.20101 25.1716 3.51472 20.4853C-1.17157 15.799 -1.17157 8.20101 3.51472 3.51472C8.20101 -1.17157 15.799 -1.17157 20.4853 3.51472Z"/>
</mask>
<path d="M6.37653 10.732C6.16439 10.9087 6.13573 11.224 6.31251 11.4362C6.4893 11.6483 6.80458 11.677 7.01672 11.5002L6.37653 10.732ZM12 6.69662L12.3201 6.31251C12.1346 6.15799 11.8653 6.15799 11.6799 6.31251L12 6.69662ZM16.9832 11.5002C17.1953 11.677 17.5106 11.6483 17.6874 11.4362C17.8642 11.224 17.8355 10.9087 17.6234 10.732L16.9832 11.5002ZM11.5 17.3033C11.5 17.5794 11.7238 17.8033 12 17.8033C12.2761 17.8033 12.5 17.5794 12.5 17.3033H11.5ZM7.01672 11.5002L12.3201 7.08073L11.6799 6.31251L6.37653 10.732L7.01672 11.5002ZM11.6799 7.08073L16.9832 11.5002L17.6234 10.732L12.3201 6.31251L11.6799 7.08073ZM11.5 6.69662V17.3033H12.5V6.69662H11.5ZM19.7782 4.22183C24.0739 8.51759 24.0739 15.4824 19.7782 19.7782L21.1924 21.1924C26.2692 16.1156 26.2692 7.88443 21.1924 2.80761L19.7782 4.22183ZM19.7782 19.7782C15.4824 24.0739 8.51759 24.0739 4.22183 19.7782L2.80761 21.1924C7.88443 26.2692 16.1156 26.2692 21.1924 21.1924L19.7782 19.7782ZM4.22183 19.7782C-0.0739417 15.4824 -0.0739417 8.51759 4.22183 4.22183L2.80761 2.80761C-2.2692 7.88443 -2.2692 16.1156 2.80761 21.1924L4.22183 19.7782ZM4.22183 4.22183C8.51759 -0.0739417 15.4824 -0.0739417 19.7782 4.22183L21.1924 2.80761C16.1156 -2.2692 7.88443 -2.2692 2.80761 2.80761L4.22183 4.22183Z" fill="black" mask="url(#path-1-inside-1_3876_4689)"/>
</svg>
