<svg width="24" height="24" viewBox="0 0 24 24" fill="none" xmlns="http://www.w3.org/2000/svg">
<g clip-path="url(#clip0_159_927)">
<path d="M7.90678 11.0333C7.41363 11.035 6.9292 11.1636 6.50012 11.4067C7.10422 9.84299 8.10616 8.46417 9.40678 7.40665C9.4812 7.34537 9.54282 7.27003 9.58811 7.18493C9.63341 7.09984 9.66151 7.00665 9.67079 6.9107C9.68008 6.81474 9.67038 6.7179 9.64223 6.6257C9.61409 6.53349 9.56807 6.44774 9.50678 6.37332C9.4455 6.2989 9.37016 6.23729 9.28506 6.19199C9.19997 6.14669 9.10678 6.1186 9.01083 6.10931C8.91487 6.10002 8.81803 6.10973 8.72583 6.13787C8.63362 6.16601 8.54787 6.21204 8.47345 6.27332C5.80678 8.43999 4.62012 11.44 4.62012 13.3C4.62471 13.9576 4.8207 14.5997 5.18414 15.1479C5.54759 15.696 6.06277 16.1264 6.66678 16.3867C7.05769 16.576 7.48577 16.6762 7.92012 16.68C8.30242 16.6986 8.68452 16.6393 9.04324 16.5058C9.40197 16.3723 9.72984 16.1674 10.007 15.9034C10.2841 15.6394 10.5048 15.3218 10.6555 14.97C10.8063 14.6182 10.884 14.2394 10.884 13.8567C10.884 13.4739 10.8063 13.0951 10.6555 12.7433C10.5048 12.3915 10.2841 12.074 10.007 11.81C9.72984 11.546 9.40197 11.341 9.04324 11.2075C8.68452 11.074 8.30242 11.0147 7.92012 11.0333H7.90678Z" fill="white"/>
<path d="M15.3335 11.0333C14.8403 11.0344 14.3557 11.163 13.9269 11.4067C14.5307 9.84463 15.53 8.46628 16.8269 7.40666C16.908 7.34815 16.9764 7.27365 17.0277 7.18774C17.079 7.10184 17.1122 7.00634 17.1252 6.90713C17.1382 6.80792 17.1308 6.7071 17.1033 6.61087C17.0759 6.51464 17.0291 6.42503 16.9658 6.34757C16.9024 6.27011 16.8239 6.20643 16.7351 6.16045C16.6462 6.11447 16.5489 6.08716 16.449 6.0802C16.3492 6.07325 16.249 6.08679 16.1547 6.12001C16.0603 6.15322 15.9737 6.2054 15.9002 6.27333C13.2335 8.43999 12.0469 11.44 12.0469 13.3C12.05 13.9502 12.2403 14.5858 12.595 15.1307C12.9496 15.6757 13.4537 16.1071 14.0469 16.3733C14.4477 16.5682 14.8879 16.6686 15.3335 16.6667C15.7158 16.6852 16.0979 16.626 16.4567 16.4925C16.8154 16.359 17.1433 16.154 17.4204 15.89C17.6976 15.626 17.9182 15.3085 18.0689 14.9567C18.2197 14.6049 18.2974 14.2261 18.2974 13.8433C18.2974 13.4606 18.2197 13.0818 18.0689 12.73C17.9182 12.3782 17.6976 12.0606 17.4204 11.7966C17.1433 11.5326 16.8154 11.3277 16.4567 11.1942C16.0979 11.0607 15.7158 11.0014 15.3335 11.02V11.0333Z" fill="white"/>
</g>
<defs>
<clipPath id="clip0_159_927">
<rect width="24" height="24" fill="white"/>
</clipPath>
</defs>
</svg>
