<svg width="24" height="24" viewBox="0 0 24 24" fill="none" xmlns="http://www.w3.org/2000/svg">
<g clip-path="url(#clip0_159_931)">
<path d="M16.0932 12.9667C16.5864 12.965 17.0708 12.8364 17.4999 12.5933C16.8958 14.157 15.8938 15.5358 14.5932 16.5933C14.5188 16.6546 14.4572 16.73 14.4119 16.8151C14.3666 16.9001 14.3385 16.9933 14.3292 17.0893C14.3199 17.1852 14.3296 17.2821 14.3578 17.3743C14.3859 17.4665 14.4319 17.5522 14.4932 17.6267C14.5545 17.7011 14.6298 17.7627 14.7149 17.808C14.8 17.8533 14.8932 17.8814 14.9892 17.8907C15.0851 17.9 15.182 17.8903 15.2742 17.8621C15.3664 17.834 15.4521 17.7879 15.5265 17.7267C18.1932 15.56 19.3799 12.56 19.3799 10.7C19.3753 10.0423 19.1793 9.40024 18.8159 8.85211C18.4524 8.30398 17.9372 7.87354 17.3332 7.61333C16.9423 7.42397 16.5142 7.32378 16.0799 7.32C15.6976 7.30142 15.3155 7.36067 14.9568 7.49417C14.598 7.62767 14.2702 7.83263 13.993 8.09663C13.7159 8.36063 13.4952 8.67817 13.3445 9.02998C13.1937 9.3818 13.116 9.76057 13.116 10.1433C13.116 10.5261 13.1937 10.9049 13.3445 11.2567C13.4952 11.6085 13.7159 11.926 13.993 12.19C14.2702 12.454 14.598 12.659 14.9568 12.7925C15.3155 12.926 15.6976 12.9852 16.0799 12.9667H16.0932Z" fill="white"/>
<path d="M8.66646 12.9667C9.1597 12.9656 9.64427 12.837 10.0731 12.5933C9.46927 14.1554 8.46996 15.5337 7.17313 16.5933C7.09196 16.6518 7.02362 16.7263 6.97232 16.8123C6.92102 16.8982 6.88784 16.9937 6.87483 17.0929C6.86181 17.1921 6.86924 17.2929 6.89665 17.3891C6.92406 17.4854 6.97088 17.575 7.03422 17.6524C7.09755 17.7299 7.17607 17.7936 7.26494 17.8396C7.35381 17.8855 7.45114 17.9128 7.55096 17.9198C7.65078 17.9268 7.75096 17.9132 7.84535 17.88C7.93973 17.8468 8.02632 17.7946 8.09979 17.7267C10.7665 15.56 11.9531 12.56 11.9531 10.7C11.95 10.0498 11.7597 9.41423 11.405 8.86925C11.0504 8.32427 10.5463 7.8929 9.95313 7.62667C9.55232 7.43177 9.11214 7.33141 8.66646 7.33334C8.28415 7.31476 7.90205 7.37401 7.54333 7.50751C7.18461 7.64101 6.85674 7.84597 6.57959 8.10997C6.30245 8.37397 6.08181 8.69151 5.93105 9.04333C5.78029 9.39514 5.70256 9.77392 5.70256 10.1567C5.70256 10.5394 5.78029 10.9182 5.93105 11.27C6.08181 11.6218 6.30245 11.9394 6.57959 12.2034C6.85674 12.4674 7.18461 12.6723 7.54333 12.8058C7.90205 12.9393 8.28415 12.9986 8.66646 12.98V12.9667Z" fill="white"/>
</g>
<defs>
<clipPath id="clip0_159_931">
<rect width="24" height="24" fill="white" transform="matrix(-1 0 0 -1 24 24)"/>
</clipPath>
</defs>
</svg>
