<svg width="16" height="16" viewBox="0 0 16 16" fill="none" xmlns="http://www.w3.org/2000/svg">
<path d="M7.66634 14.3716H3.17128C2.28763 14.3716 1.57128 13.6553 1.57129 12.7716L1.57135 3.17165C1.57136 2.28799 2.2877 1.57166 3.17135 1.57166H10.3715C11.2552 1.57166 11.9715 2.288 11.9715 3.17165V6.37165M4.37154 4.77165H9.17154M4.37154 7.17165H9.17154M4.37154 9.57165H6.77154" stroke="black" stroke-linecap="round" stroke-linejoin="round"/>
<path d="M11.879 14.6026C12.2906 14.7187 12.73 14.6747 13.1575 14.4704C13.7789 14.1739 14.2697 13.5891 14.5151 12.868C14.717 12.2671 14.717 11.6462 14.5151 11.1214C14.3093 10.5846 13.9135 10.2081 13.4108 10.0638C13.1377 9.98373 12.8527 9.97972 12.5598 10.0478C12.3065 10.1079 12.0452 10.14 11.784 10.148H11.5505C11.2892 10.14 11.028 10.1079 10.7747 10.0478C10.4818 9.97972 10.1968 9.98774 9.9237 10.0638C9.41706 10.2081 9.02521 10.5846 8.81939 11.1214C8.61753 11.6462 8.61357 12.2671 8.81939 12.868C9.06083 13.5891 9.5556 14.1739 10.177 14.4704C10.4501 14.5986 10.7272 14.6667 11.0003 14.6667C11.1547 14.6667 11.3051 14.6466 11.4555 14.6026C11.598 14.5625 11.7484 14.5625 11.8909 14.6026" stroke="black" stroke-miterlimit="10"/>
<path d="M11.4998 10C12.8934 9.92401 14.0002 8.82692 14.0002 7.49088C14.0002 7.40398 13.9256 7.33337 13.8339 7.33337C12.6869 7.33337 11.7063 8.02855 11.3335 8.99529" stroke="black" stroke-miterlimit="10"/>
<path d="M10.6665 8C10.6665 8 11.6665 8.66667 11.3216 10" stroke="black" stroke-miterlimit="10" stroke-linecap="round"/>
</svg>
