<svg viewBox="0 0 16 16" fill="none" xmlns="http://www.w3.org/2000/svg">
<path d="M13.625 8.5C13.9011 8.5 14.125 8.27614 14.125 8C14.125 7.72386 13.9011 7.5 13.625 7.5V8.5ZM13.5 8C13.5 11.0376 11.0376 13.5 8 13.5V14.5C11.5899 14.5 14.5 11.5899 14.5 8H13.5ZM8 13.5C4.96243 13.5 2.5 11.0376 2.5 8H1.5C1.5 11.5899 4.41015 14.5 8 14.5V13.5ZM2.5 8C2.5 4.96243 4.96243 2.5 8 2.5V1.5C4.41015 1.5 1.5 4.41015 1.5 8H2.5ZM8 2.5C11.0376 2.5 13.5 4.96243 13.5 8H14.5C14.5 4.41015 11.5899 1.5 8 1.5V2.5ZM8 13.5C7.803 13.5 7.5759 13.4108 7.32576 13.169C7.07322 12.9249 6.82295 12.5474 6.60192 12.0422C6.16053 11.0333 5.875 9.60457 5.875 8H4.875C4.875 9.70914 5.1771 11.2804 5.68577 12.4431C5.93978 13.0236 6.25514 13.5249 6.6307 13.888C7.00866 14.2534 7.47213 14.5 8 14.5V13.5ZM5.875 8C5.875 6.39543 6.16053 4.96667 6.60192 3.95777C6.82295 3.45258 7.07322 3.07514 7.32576 2.83098C7.5759 2.58916 7.803 2.5 8 2.5V1.5C7.47213 1.5 7.00866 1.74663 6.6307 2.11204C6.25514 2.47511 5.93978 2.97636 5.68577 3.55695C5.1771 4.71962 4.875 6.29086 4.875 8H5.875ZM8 14.5C8.52787 14.5 8.99134 14.2534 9.3693 13.888C9.74486 13.5249 10.0602 13.0236 10.3142 12.4431C10.8229 11.2804 11.125 9.70914 11.125 8H10.125C10.125 9.60457 9.83947 11.0333 9.39808 12.0422C9.17705 12.5474 8.92678 12.9249 8.67424 13.169C8.4241 13.4108 8.197 13.5 8 13.5V14.5ZM11.125 8C11.125 6.29086 10.8229 4.71962 10.3142 3.55695C10.0602 2.97636 9.74486 2.47511 9.3693 2.11204C8.99134 1.74663 8.52787 1.5 8 1.5V2.5C8.197 2.5 8.4241 2.58916 8.67424 2.83098C8.92678 3.07514 9.17705 3.45258 9.39808 3.95777C9.83947 4.96667 10.125 6.39543 10.125 8H11.125ZM2 8.5L13.625 8.5V7.5L2 7.5L2 8.5Z" fill="black"/>
</svg>
