<svg viewBox="0 0 24 24" fill="none" xmlns="http://www.w3.org/2000/svg">
<path d="M10.7999 20.6H4.79989C3.47441 20.6 2.39989 19.5255 2.3999 18.2L2.4 5.49999C2.4 4.17451 3.47452 3.1 4.79999 3.1H15.6003C16.9257 3.1 18.0003 4.17452 18.0003 5.5V11M6.60028 7.8H13.8003M6.60028 11.4H13.8003M6.60028 15H10.2003" stroke="black" stroke-linecap="round" stroke-linejoin="round"/>
<path d="M21.0874 17C21.0874 19.2091 19.277 21 17.0437 21C14.8104 21 13 19.2091 13 17C13 14.7909 14.8104 13 17.0437 13C18.5405 13 19.8473 13.8044 20.5465 15M19.9781 17.439L20.9891 16.439L22 17.439M18.5587 18.0907L17.0427 17.5907V15.5" stroke="black" stroke-linecap="round" stroke-linejoin="round"/>
</svg>
