<svg width="16" height="16" viewBox="0 0 16 16" fill="none" xmlns="http://www.w3.org/2000/svg">
<path d="M2.39645 12.5214C2.20118 12.7167 2.20118 13.0333 2.39645 13.2286C2.59171 13.4238 2.90829 13.4238 3.10355 13.2286L2.39645 12.5214ZM5.75 9.875L6.10355 9.52145C5.90829 9.32618 5.59171 9.32618 5.39645 9.52145L5.75 9.875ZM7.25 11.375L6.89645 11.7286C7.09171 11.9238 7.40829 11.9238 7.60355 11.7286L7.25 11.375ZM10.625 8L10.9786 7.64645C10.7833 7.45118 10.4667 7.45118 10.2714 7.64645L10.625 8ZM13.2714 11.3536C13.4667 11.5488 13.7833 11.5488 13.9786 11.3536C14.1738 11.1583 14.1738 10.8417 13.9786 10.6464L13.2714 11.3536ZM3.10355 13.2286L6.10355 10.2286L5.39645 9.52145L2.39645 12.5214L3.10355 13.2286ZM5.39645 10.2286L6.89645 11.7286L7.60355 11.0214L6.10355 9.52145L5.39645 10.2286ZM7.60355 11.7286L10.9786 8.35355L10.2714 7.64645L6.89645 11.0214L7.60355 11.7286ZM10.2714 8.35355L13.2714 11.3536L13.9786 10.6464L10.9786 7.64645L10.2714 8.35355ZM4.25 2.5H11.75V1.5H4.25V2.5ZM13.5 4.25V11.75H14.5V4.25H13.5ZM11.75 13.5H4.25V14.5H11.75V13.5ZM2.5 11.75V4.25H1.5V11.75H2.5ZM4.25 13.5C3.2835 13.5 2.5 12.7165 2.5 11.75H1.5C1.5 13.2688 2.73122 14.5 4.25 14.5V13.5ZM13.5 11.75C13.5 12.7165 12.7165 13.5 11.75 13.5V14.5C13.2688 14.5 14.5 13.2688 14.5 11.75H13.5ZM11.75 2.5C12.7165 2.5 13.5 3.2835 13.5 4.25H14.5C14.5 2.73122 13.2688 1.5 11.75 1.5V2.5ZM4.25 1.5C2.73122 1.5 1.5 2.73122 1.5 4.25H2.5C2.5 3.2835 3.2835 2.5 4.25 2.5V1.5ZM6 5.375C6 5.72018 5.72018 6 5.375 6V7C6.27246 7 7 6.27246 7 5.375H6ZM5.375 6C5.02982 6 4.75 5.72018 4.75 5.375H3.75C3.75 6.27246 4.47754 7 5.375 7V6ZM4.75 5.375C4.75 5.02982 5.02982 4.75 5.375 4.75V3.75C4.47754 3.75 3.75 4.47754 3.75 5.375H4.75ZM5.375 4.75C5.72018 4.75 6 5.02982 6 5.375H7C7 4.47754 6.27246 3.75 5.375 3.75V4.75Z" fill="black"/>
</svg>
