<svg viewBox="0 0 24 24" fill="none" xmlns="http://www.w3.org/2000/svg">
<path d="M15.7169 14.7243C15.9789 14.8117 16.262 14.6701 16.3493 14.4081C16.4367 14.1461 16.2951 13.863 16.0331 13.7757L15.7169 14.7243ZM12.5 13.125H12C12 13.3402 12.1377 13.5313 12.3419 13.5993L12.5 13.125ZM13 8.42087C13 8.14473 12.7761 7.92087 12.5 7.92087C12.2239 7.92087 12 8.14473 12 8.42087H13ZM16.0331 13.7757L12.6581 12.6507L12.3419 13.5993L15.7169 14.7243L16.0331 13.7757ZM13 13.125V8.42087H12V13.125H13ZM21 12C21 16.6944 17.1944 20.5 12.5 20.5V21.5C17.7467 21.5 22 17.2467 22 12H21ZM12.5 20.5C7.80558 20.5 4 16.6944 4 12H3C3 17.2467 7.25329 21.5 12.5 21.5V20.5ZM4 12C4 7.30558 7.80558 3.5 12.5 3.5V2.5C7.25329 2.5 3 6.75329 3 12H4ZM12.5 3.5C17.1944 3.5 21 7.30558 21 12H22C22 6.75329 17.7467 2.5 12.5 2.5V3.5Z" fill="#111111"/>
</svg>
