<svg viewBox="0 0 24 24" fill="none" xmlns="http://www.w3.org/2000/svg">
<path fill-rule="evenodd" clip-rule="evenodd" d="M9.1875 6.70588C9.1875 5.97373 9.80774 5.4375 10.5 5.4375H13.5C14.1923 5.4375 14.8125 5.97373 14.8125 6.70588V8.54105C14.8125 8.58974 14.8098 8.63757 14.8044 8.68443L15.75 8.68443C15.7505 8.68443 15.7495 8.68443 15.75 8.68443L18 8.68443C18.3107 8.68443 18.5625 8.93627 18.5625 9.24693C18.5625 9.55759 18.3107 9.80943 18 9.80943H17.0544C17.0598 9.85629 17.0625 9.90412 17.0625 9.95281V17.7175C17.0625 18.8395 16.1065 19.6918 15 19.6918H9C7.89353 19.6918 6.9375 18.8395 6.9375 17.7175V9.95281C6.9375 9.90412 6.94024 9.85629 6.94557 9.80943H6C5.68934 9.80943 5.4375 9.55759 5.4375 9.24693C5.4375 8.93627 5.68934 8.68443 6 8.68443L8.24933 8.68443C8.24955 8.68443 8.24911 8.68443 8.24933 8.68443H9.19557C9.19024 8.63757 9.1875 8.58974 9.1875 8.54105V6.70588ZM10.5 8.68443H13.5C13.6362 8.68443 13.6875 8.58859 13.6875 8.54105V6.70588C13.6875 6.65833 13.6362 6.5625 13.5 6.5625H10.5C10.3638 6.5625 10.3125 6.65833 10.3125 6.70588V8.54105C10.3125 8.58859 10.3638 8.68443 10.5 8.68443ZM8.24972 9.80943C8.11376 9.80956 8.0625 9.9053 8.0625 9.95281V17.7175C8.0625 18.1549 8.44962 18.5668 9 18.5668H15C15.5504 18.5668 15.9375 18.1549 15.9375 17.7175V9.95281C15.9375 9.90533 15.8863 9.8097 15.7506 9.80943C15.7504 9.80943 15.7508 9.80943 15.7506 9.80943L8.24972 9.80943C8.24963 9.80943 8.24981 9.80943 8.24972 9.80943Z" fill="black"/>
</svg>
