<svg viewBox="0 0 32 32" fill="none" xmlns="http://www.w3.org/2000/svg">
<path d="M7.85714 20.5719C5.7269 20.5719 4 19.2388 4 17.2842C4 15.3296 5.7269 13.745 7.85714 13.745C8.002 13.745 8.145 13.7524 8.28571 13.7666V13.745H8.33877C8.30375 13.4874 8.28571 13.2249 8.28571 12.9585C8.28571 9.48365 11.3558 6.66669 15.1429 6.66669C17.7074 6.66669 19.9431 7.95844 21.1193 9.87151C21.4067 9.83271 21.7008 9.81262 22 9.81262C25.3137 9.81262 28 12.2775 28 15.318C28 17.8209 26.1797 19.7289 23.6875 20.3579M15.8106 25.3334V16.3011M15.8106 16.3011L11.875 20.0261M15.8106 16.3011L19.75 20.0261" stroke="#838383" stroke-linecap="round" stroke-linejoin="round"/>
</svg>
