<svg width="34" height="34" viewBox="0 0 34 34" fill="none" xmlns="http://www.w3.org/2000/svg">
<path d="M25.0793 0H8.92072C3.99395 0 0 3.99394 0 8.92072V25.0793C0 30.0061 3.99395 34 8.92072 34H25.0793C30.0061 34 34 30.0061 34 25.0793V8.92072C34 3.99394 30.0061 0 25.0793 0Z" fill="#DF9393" fill-opacity="0.81"/>
<path d="M9.35528 12.928C9.32659 11.9687 10.083 11.1672 11.0443 11.1385C12.0036 11.1098 12.8051 11.8662 12.8338 12.8275C12.8625 13.7868 12.1061 14.5883 11.1448 14.617C10.1854 14.6457 9.38398 13.8893 9.35528 12.928Z" fill="#333333"/>
<path d="M21.5291 12.5754C21.5004 11.6161 22.2568 10.8146 23.2181 10.7859C24.1795 10.7572 24.9789 11.5136 25.0076 12.475C25.0363 13.4363 24.2799 14.2358 23.3186 14.2645C22.3593 14.2932 21.5578 13.5368 21.5291 12.5754Z" fill="#333333"/>
<path d="M19.4049 17.9461C19.6468 17.7698 19.8928 17.6222 20.1408 17.5177C21.3092 17.0319 21.918 18.3232 22.4304 18.9259C22.8076 19.3686 23.1724 19.9282 22.949 20.5821C22.5268 21.8202 20.8439 22.882 19.8579 23.7449C18.8576 24.6202 17.8696 25.5057 16.8919 26.4035C16.1662 27.0697 15.3566 28.0208 14.3665 28.0208C13.9443 28.0208 13.6634 27.7256 13.4215 27.4428C13.0013 26.9488 12.5955 26.4404 12.2019 25.9218C11.8166 25.4135 11.9149 24.8293 12.4233 24.1836C12.7554 23.7613 13.1879 23.4149 13.6122 23.0706C14.8236 22.0867 16.0084 21.0741 17.1686 20.0307C17.8348 19.4301 18.5952 18.5323 19.4029 17.944L19.4049 17.9461Z" fill="#333333"/>
<path d="M15.5987 17.9502C15.3568 17.7739 15.1108 17.6263 14.8628 17.5218C13.6944 17.0339 13.0856 18.3273 12.5732 18.9279C12.196 19.3707 11.8312 19.9303 12.0546 20.5842C12.4769 21.8222 14.1597 22.884 15.1457 23.747C16.1439 24.6223 17.134 25.5078 18.1097 26.4076C18.8353 27.0738 19.645 28.0249 20.633 28.0249C21.0553 28.0249 21.3361 27.7298 21.578 27.4469C21.9982 26.9529 22.4061 26.4445 22.7976 25.9259C23.183 25.4176 23.0846 24.8334 22.5762 24.1877C22.2441 23.7654 21.8116 23.419 21.3894 23.0747C20.18 22.0908 18.9932 21.0761 17.835 20.0348C17.1688 19.4342 16.4084 18.5364 15.6007 17.9481L15.5987 17.9502Z" fill="#333333"/>
<path d="M13.0018 10.2613C13.1268 10.3207 13.2723 10.2736 13.3441 10.1526C13.5327 9.82671 13.6577 9.46184 13.7069 9.08468C13.7582 8.68292 8.95958 7.38745 8.46762 7.26241C7.28489 6.96314 5.98942 6.63108 4.71855 6.47734C4.39468 6.43839 4.29219 6.91804 4.60376 7.02258C5.77009 7.40999 6.97947 7.72156 8.11096 8.15612C9.7672 8.79156 11.4009 9.49464 13.0038 10.2633L13.0018 10.2613Z" fill="#333333"/>
<path d="M21.2131 10.0234C21.0922 10.089 20.9425 10.0521 20.8647 9.93523C20.6576 9.62161 20.5121 9.2629 20.4404 8.88983C20.3645 8.49217 25.0811 6.91997 25.5669 6.76829C26.7291 6.40138 28.0041 5.99551 29.2647 5.76799C29.5866 5.71059 29.7157 6.1841 29.4103 6.30503C28.2685 6.75804 27.0776 7.14135 25.9748 7.63945C24.3575 8.36918 22.7689 9.16451 21.2111 10.0254L21.2131 10.0234Z" fill="#333333"/>
</svg>
