<svg width="34" height="34" viewBox="0 0 34 34" fill="none" xmlns="http://www.w3.org/2000/svg">
<path d="M25.0793 0H8.92072C3.99394 0 0 3.99394 0 8.92072V25.0793C0 30.0061 3.99394 34 8.92072 34H25.0793C30.0061 34 34 30.0061 34 25.0793V8.92072C34 3.99394 30.0061 0 25.0793 0Z" fill="#EFCFC5"/>
<path d="M11.3847 21.5292C12.4126 21.5292 13.2459 20.1251 13.2459 18.393C13.2459 16.661 12.4126 15.2568 11.3847 15.2568C10.3567 15.2568 9.52344 16.661 9.52344 18.393C9.52344 20.1251 10.3567 21.5292 11.3847 21.5292Z" fill="white"/>
<path d="M23.6835 21.5292C24.7114 21.5292 25.5447 20.1251 25.5447 18.393C25.5447 16.661 24.7114 15.2568 23.6835 15.2568C22.6556 15.2568 21.8223 16.661 21.8223 18.393C21.8223 20.1251 22.6556 21.5292 23.6835 21.5292Z" fill="white"/>
<path d="M11.5 19C12.3284 19 13 18.3284 13 17.5C13 16.6716 12.3284 16 11.5 16C10.6716 16 10 16.6716 10 17.5C10 18.3284 10.6716 19 11.5 19Z" fill="#333333"/>
<path d="M23.5 19C24.3284 19 25 18.3284 25 17.5C25 16.6716 24.3284 16 23.5 16C22.6716 16 22 16.6716 22 17.5C22 18.3284 22.6716 19 23.5 19Z" fill="#333333"/>
<path d="M29.5932 11.4933C29.5932 13.0122 28.9844 13.4447 28.1481 13.4447C27.3117 13.4447 26.5615 13.0122 26.5615 11.4933C26.5615 9.97437 27.1847 6.83203 28.021 6.83203C28.8573 6.83203 29.5932 9.97437 29.5932 11.4933Z" fill="white"/>
<path d="M19.9892 8.21984C19.9892 9.40258 19.5157 9.73669 18.8639 9.73669C18.212 9.73669 17.6299 9.40053 17.6299 8.21984C17.6299 7.03916 18.1136 4.59375 18.7655 4.59375C19.4173 4.59375 19.9892 7.03711 19.9892 8.21984Z" fill="white"/>
<path d="M8.95278 11.5652C8.95278 12.7438 8.48133 13.08 7.83154 13.08C7.18175 13.08 6.59961 12.7458 6.59961 11.5652C6.59961 10.3845 7.08336 7.94727 7.73315 7.94727C8.38293 7.94727 8.95278 10.3845 8.95278 11.5652Z" fill="white"/>
<path d="M14.1437 9.88826C14.1437 10.7 13.8198 10.9296 13.3729 10.9296C12.9261 10.9296 12.5264 10.7 12.5264 9.88826C12.5264 9.07654 12.8584 7.40186 13.3053 7.40186C13.7521 7.40186 14.1437 9.07859 14.1437 9.88826Z" fill="white"/>
<path d="M23.1583 11.3663C23.1583 12.178 22.8344 12.4076 22.3876 12.4076C21.9407 12.4076 21.541 12.178 21.541 11.3663C21.541 10.5546 21.8731 8.87988 22.3199 8.87988C22.7668 8.87988 23.1583 10.5566 23.1583 11.3663Z" fill="white"/>
<path d="M3.1424 25.975C3.06656 25.975 2.98866 25.9586 2.91692 25.9217C2.66684 25.7967 2.5664 25.4933 2.69144 25.2433L4.04021 22.5478C4.16525 22.2977 4.46862 22.1973 4.71869 22.3223C4.96877 22.4473 5.06921 22.7507 4.94417 23.0008L3.5954 25.6963C3.50726 25.8726 3.32893 25.975 3.1424 25.975Z" fill="#EB294C"/>
<path d="M5.33283 25.975C5.25699 25.975 5.17909 25.9586 5.10735 25.9217C4.85727 25.7967 4.75683 25.4933 4.88187 25.2433L6.22859 22.5478C6.35363 22.2977 6.657 22.1973 6.90707 22.3223C7.15715 22.4473 7.25759 22.7507 7.13255 23.0008L5.78583 25.6963C5.69769 25.8726 5.51936 25.975 5.33283 25.975Z" fill="#EB294C"/>
<path d="M7.52228 25.975C7.44643 25.975 7.36854 25.9586 7.2968 25.9217C7.04672 25.7967 6.94629 25.4933 7.07133 25.2433L8.42009 22.5478C8.54513 22.2977 8.8485 22.1973 9.09857 22.3223C9.34865 22.4473 9.44909 22.7507 9.32405 23.0008L7.97528 25.6963C7.88714 25.8726 7.70881 25.975 7.52228 25.975Z" fill="#EB294C"/>
<path d="M25.1287 25.975C25.0529 25.975 24.975 25.9586 24.9032 25.9217C24.6532 25.7967 24.5527 25.4933 24.6778 25.2433L26.0265 22.5478C26.1516 22.2977 26.4549 22.1973 26.705 22.3223C26.9551 22.4473 27.0555 22.7507 26.9305 23.0008L25.5817 25.6963C25.4936 25.8726 25.3153 25.975 25.1287 25.975Z" fill="#EB294C"/>
<path d="M27.3192 25.975C27.2433 25.975 27.1654 25.9586 27.0937 25.9217C26.8436 25.7967 26.7432 25.4933 26.8682 25.2433L28.217 22.5478C28.342 22.2977 28.6454 22.1973 28.8955 22.3223C29.1455 22.4473 29.246 22.7507 29.1209 23.0008L27.7722 25.6963C27.684 25.8726 27.5057 25.975 27.3192 25.975Z" fill="#EB294C"/>
<path d="M29.5086 25.975C29.4328 25.975 29.3549 25.9586 29.2831 25.9217C29.0331 25.7967 28.9326 25.4933 29.0577 25.2433L30.4064 22.5478C30.5315 22.2977 30.8348 22.1973 31.0849 22.3223C31.335 22.4473 31.4354 22.7507 31.3104 23.0008L29.9616 25.6963C29.8735 25.8726 29.6951 25.975 29.5086 25.975Z" fill="#EB294C"/>
</svg>
