<svg width="35" height="34" viewBox="0 0 35 34" fill="none" xmlns="http://www.w3.org/2000/svg">
<path d="M25.2756 0H9.32204C4.33866 0 0.298828 4.03982 0.298828 9.02321V24.9768C0.298828 29.9602 4.33866 34 9.32204 34H25.2756C30.259 34 34.2988 29.9602 34.2988 24.9768V9.02321C34.2988 4.03982 30.259 0 25.2756 0Z" fill="#AACA7E"/>
<path d="M12.1899 23.4581C11.9111 23.5606 11.6324 23.3248 11.6734 23.0338C12.0218 20.5924 14.3606 18.7046 17.1955 18.7046C20.0304 18.7046 22.3692 20.5904 22.7177 23.0317C22.7587 23.3248 22.4779 23.5585 22.2011 23.456L19.5302 22.4701C18.0421 21.9207 16.4063 21.9166 14.9161 22.4619L12.192 23.4581H12.1899Z" fill="#333333"/>
<path d="M12.8682 11.7166C13.0424 11.735 13.2146 11.7576 13.3847 11.7863C14.8811 12.0302 15.1926 13.4732 13.5323 13.7233C12.6468 13.8566 11.7203 13.6167 10.8614 13.4609C9.64793 13.2416 8.45085 13.094 7.28042 13.5368C6.975 13.6516 6.72083 13.5081 6.67573 13.2478C6.62039 12.9341 7.05289 12.68 7.33166 12.5508C8.91616 11.815 11.0275 11.5177 12.8702 11.7145L12.8682 11.7166Z" fill="#333333"/>
<path d="M26.1465 11.7166C26.3207 11.735 26.4929 11.7576 26.663 11.7863C28.1594 12.0302 28.471 13.4732 26.8106 13.7233C25.9251 13.8566 24.9986 13.6167 24.1397 13.4609C22.9263 13.2416 21.7292 13.094 20.5587 13.5368C20.2533 13.6516 19.9991 13.5081 19.9541 13.2478C19.8987 12.9341 20.3312 12.68 20.61 12.5508C22.1945 11.815 24.3058 11.5177 26.1485 11.7145L26.1465 11.7166Z" fill="#333333"/>
<path d="M12.1914 13.8814C12.1914 13.3423 12.628 12.9077 13.1651 12.9077C13.7021 12.9077 14.1387 13.3443 14.1387 13.8814C14.1387 14.4184 13.7021 14.855 13.1651 14.855C12.628 14.855 12.1914 14.4184 12.1914 13.8814Z" fill="#333333"/>
<path d="M25.4473 13.8814C25.4473 13.3423 25.8839 12.9077 26.4209 12.9077C26.958 12.9077 27.3946 13.3443 27.3946 13.8814C27.3946 14.4184 26.958 14.855 26.4209 14.855C25.8839 14.855 25.4473 14.4184 25.4473 13.8814Z" fill="#333333"/>
</svg>
