<svg width="34" height="34" viewBox="0 0 34 34" fill="none" xmlns="http://www.w3.org/2000/svg">
<path d="M24.9768 0H9.02321C4.03983 0 0 4.03983 0 9.02322V24.9768C0 29.9602 4.03983 34 9.02321 34H24.9768C29.9602 34 34 29.9602 34 24.9768V9.02322C34 4.03983 29.9602 0 24.9768 0Z" fill="#939598"/>
<path d="M20.9132 25.3281C21.8786 25.3281 22.5428 24.3278 22.1348 23.4525C21.3067 21.6733 19.3389 20.4209 17.0431 20.4209C14.7474 20.4209 12.7775 21.6733 11.9514 23.4525C11.5435 24.3278 12.2077 25.3281 13.1731 25.3281H20.9132Z" fill="#333333"/>
<path d="M6.14838 12.2238C6.22422 12.3591 6.3759 12.4759 6.61573 12.5374C8.60813 13.056 12.5294 12.3939 12.8492 9.87881C12.9025 9.46681 12.6893 8.4624 12.0969 8.94C11.4737 9.4422 11.0474 10.1412 10.4058 10.6331C9.77447 11.1148 9.03654 11.3834 8.23917 11.3547C7.72057 11.3362 7.15687 11.2214 6.64852 11.3793C6.19142 11.5207 5.98234 11.9225 6.14838 12.2238Z" fill="#333333"/>
<path d="M27.9372 12.2238C27.8613 12.3591 27.7097 12.4759 27.4698 12.5374C25.4774 13.056 21.5562 12.3939 21.2364 9.87881C21.1831 9.46681 21.3963 8.4624 21.9887 8.94C22.6118 9.4422 23.0382 10.1412 23.6798 10.6331C24.3111 11.1148 25.049 11.3834 25.8464 11.3547C26.365 11.3362 26.9287 11.2214 27.437 11.3793C27.8941 11.5207 28.1032 11.9225 27.9372 12.2238Z" fill="#333333"/>
<path d="M12.6783 15.6182C12.9079 15.7023 13.1252 15.8048 13.3199 15.9483C14.3161 16.6944 13.2338 17.5881 12.5369 18.0268C11.7805 18.5023 10.5506 19.3509 9.60772 19.1664C9.46013 19.1377 9.30435 19.0742 9.22851 18.943C8.87184 18.3219 9.86804 18.0288 10.2698 17.8546C10.5691 17.7254 11.1553 17.4344 11.1205 17.0326C11.1102 16.9137 11.0364 16.8092 10.9524 16.7251C10.362 16.1491 9.09322 16.3172 8.85954 15.3579C8.8288 15.2288 8.84724 15.0832 8.93539 14.9828C9.02148 14.8844 9.15472 14.8455 9.2818 14.825C10.071 14.6917 10.8458 14.9623 11.5694 15.2534C11.9219 15.3948 12.3135 15.483 12.6804 15.6162L12.6783 15.6182Z" fill="#333333"/>
<path d="M21.4053 15.6182C21.1757 15.7023 20.9584 15.8048 20.7637 15.9483C19.7675 16.6944 20.8498 17.5881 21.5467 18.0268C22.3031 18.5023 23.533 19.3509 24.4759 19.1664C24.6235 19.1377 24.7793 19.0742 24.8551 18.943C25.2118 18.3219 24.2156 18.0288 23.8138 17.8546C23.5145 17.7254 22.9283 17.4344 22.9631 17.0326C22.9734 16.9137 23.0472 16.8092 23.1312 16.7251C23.7216 16.1491 24.9904 16.3172 25.2241 15.3579C25.2548 15.2288 25.2364 15.0832 25.1482 14.9828C25.0621 14.8844 24.9289 14.8455 24.8018 14.825C24.0126 14.6917 23.2378 14.9623 22.5142 15.2534C22.1617 15.3948 21.7702 15.483 21.4032 15.6162L21.4053 15.6182Z" fill="#333333"/>
</svg>
