<svg width="34" height="34" viewBox="0 0 34 34" fill="none" xmlns="http://www.w3.org/2000/svg">
<path d="M24.9768 0H9.02321C4.03983 0 0 4.03982 0 9.0232V24.9768C0 29.9602 4.03983 34 9.02321 34H24.9768C29.9602 34 34 29.9602 34 24.9768V9.0232C34 4.03982 29.9602 0 24.9768 0Z" fill="#6EA6BE"/>
<path d="M27.7742 22.8349H6.22263C5.97051 22.8349 5.76758 22.632 5.76758 22.3799C5.76758 22.1277 5.97051 21.9248 6.22263 21.9248H27.7763C28.0284 21.9248 28.2313 22.1277 28.2313 22.3799C28.2313 22.632 28.0284 22.8349 27.7763 22.8349H27.7742Z" fill="#333333"/>
<path d="M11.3622 15.3847C12.0776 14.8928 12.6392 14.2143 13.2398 13.5871C13.33 13.4928 13.4325 13.3923 13.5637 13.3739C13.7399 13.3472 13.908 13.4866 13.9716 13.6527C14.0351 13.8187 14.0187 14.0052 13.988 14.1795C13.7276 15.7271 12.5839 17.0102 11.2412 17.824C10.5259 18.2565 9.73053 18.5865 8.89627 18.6521C8.12349 18.7136 7.25438 18.5373 6.64354 18.0331C6.11879 17.5985 5.83592 16.8688 6.57794 16.5654C7.19698 16.3113 8.16449 16.4568 8.83272 16.3358C9.72438 16.176 10.6058 15.9013 11.3601 15.3847H11.3622Z" fill="#333333"/>
<path d="M22.4225 15.3847C21.7071 14.8928 21.1455 14.2143 20.5449 13.5871C20.4547 13.4928 20.3522 13.3923 20.221 13.3739C20.0447 13.3472 19.8766 13.4866 19.8131 13.6527C19.7495 13.8187 19.7659 14.0052 19.7967 14.1795C20.057 15.7271 21.2008 17.0102 22.5434 17.824C23.2588 18.2565 24.0541 18.5865 24.8884 18.6521C25.6612 18.7136 26.5303 18.5373 27.1411 18.0331C27.6659 17.5985 27.9487 16.8688 27.2067 16.5654C26.5877 16.3113 25.6202 16.4568 24.9519 16.3358C24.0603 16.176 23.1789 15.9013 22.4245 15.3847H22.4225Z" fill="#333333"/>
</svg>
