<svg width="34" height="34" viewBox="0 0 34 34" fill="none" xmlns="http://www.w3.org/2000/svg">
<path d="M24.9768 0H9.02321C4.03983 0 0 4.03982 0 9.0232V24.9768C0 29.9602 4.03983 34 9.02321 34H24.9768C29.9602 34 34 29.9602 34 24.9768V9.0232C34 4.03982 29.9602 0 24.9768 0Z" fill="#BBB4E4" fill-opacity="0.65"/>
<path d="M13.3157 16.8247H5.13084C4.87871 16.8247 4.67578 16.6217 4.67578 16.3696C4.67578 16.1175 4.87871 15.9146 5.13084 15.9146H13.3157C13.5678 15.9146 13.7707 16.1175 13.7707 16.3696C13.7707 16.6217 13.5678 16.8247 13.3157 16.8247Z" fill="#333333"/>
<path d="M28.8674 16.8247H20.6826C20.4305 16.8247 20.2275 16.6217 20.2275 16.3696C20.2275 16.1175 20.4305 15.9146 20.6826 15.9146H28.8674C29.1196 15.9146 29.3225 16.1175 29.3225 16.3696C29.3225 16.6217 29.1196 16.8247 28.8674 16.8247Z" fill="#333333"/>
<path d="M13.3157 18.7353H5.13084C4.87871 18.7353 4.67578 18.5324 4.67578 18.2803C4.67578 18.0281 4.87871 17.8252 5.13084 17.8252H13.3157C13.5678 17.8252 13.7707 18.0281 13.7707 18.2803C13.7707 18.5324 13.5678 18.7353 13.3157 18.7353Z" fill="#333333"/>
<path d="M28.8674 18.7353H20.6826C20.4305 18.7353 20.2275 18.5324 20.2275 18.2803C20.2275 18.0281 20.4305 17.8252 20.6826 17.8252H28.8674C29.1196 17.8252 29.3225 18.0281 29.3225 18.2803C29.3225 18.5324 29.1196 18.7353 28.8674 18.7353Z" fill="#333333"/>
<path d="M32.3127 12.3687C32.3127 14.0085 31.6547 14.4759 30.7507 14.4759C29.8468 14.4759 29.0371 14.0106 29.0371 12.3687C29.0371 10.7268 29.7094 7.33643 30.6134 7.33643C31.5174 7.33643 32.3106 10.7288 32.3106 12.3687H32.3127Z" fill="#333333"/>
</svg>
