<svg width="34" height="34" viewBox="0 0 34 34" fill="none" xmlns="http://www.w3.org/2000/svg">
<path d="M25.0836 34H8.91643C3.99314 34 0 30.007 0 25.0793V8.92072C0 3.99505 3.99109 0 8.91643 0H25.0733C29.9946 0 33.9857 3.99095 33.9898 8.91457L34 25.0731C34.002 30.0008 30.011 33.9979 25.0836 33.9979V34Z" fill="#AACA7E"/>
<path d="M23.8707 24.6467C23.2294 24.6467 22.496 24.3495 21.6765 23.7551C20.9758 23.2467 20.4062 23.0561 20.1583 23.2447C20.0784 23.3062 19.9882 23.4332 19.894 23.5685C19.7608 23.7612 19.6092 23.9785 19.3818 24.1691C18.5459 24.8763 17.3944 24.6836 16.5954 24.2655C16.2881 24.1056 16.0156 23.917 15.7513 23.7366C15.4501 23.5296 15.1674 23.3369 14.8764 23.2139C14.1757 22.9187 13.3009 23.0335 12.7027 23.5029C12.6207 23.5665 12.5367 23.6423 12.4466 23.7223C12.1925 23.9477 11.9057 24.204 11.5102 24.3618C10.3383 24.8271 9.35286 24.1158 8.56202 23.546C8.11948 23.2262 7.69946 22.9249 7.29789 22.8183C6.6935 22.6584 5.94364 23.0704 5.75515 23.6669C5.63017 24.0605 5.21016 24.2778 4.81679 24.1527C4.42342 24.0277 4.20624 23.6075 4.33122 23.2139C4.76352 21.8528 6.29807 21.0083 7.67897 21.3732C8.35098 21.5495 8.9267 21.9676 9.43685 22.3345C10.1929 22.8798 10.5903 23.1217 10.9612 22.9741C11.1128 22.9146 11.2787 22.765 11.457 22.6072C11.5594 22.5149 11.666 22.4206 11.7848 22.3264C12.8133 21.5208 14.2577 21.3301 15.4604 21.8364C15.8906 22.0189 16.2512 22.2649 16.5995 22.5047C16.8372 22.6687 17.0625 22.8224 17.292 22.9413C17.671 23.1401 18.1812 23.2324 18.4229 23.0274C18.5008 22.9618 18.5848 22.8408 18.6749 22.7117C18.8163 22.5088 18.9925 22.2546 19.2609 22.0517C19.8448 21.6089 20.8918 21.3322 22.5595 22.5416C23.2807 23.0643 23.842 23.2611 24.0981 23.0786C24.176 23.0233 24.2662 22.9085 24.3624 22.7876C24.4321 22.6994 24.5017 22.6113 24.5755 22.5293C25.2455 21.7811 26.3395 21.4675 27.4336 21.7094C28.5256 21.9512 29.3861 22.6974 29.6791 23.6587C29.8 24.0543 29.5767 24.4704 29.1813 24.5914C28.7858 24.7123 28.3699 24.4889 28.249 24.0933C28.0872 23.5603 27.5545 23.2652 27.1099 23.1668C26.6653 23.0684 26.0589 23.1114 25.688 23.5255C25.6348 23.5849 25.5856 23.6485 25.5344 23.712C25.3909 23.8924 25.2127 24.1199 24.9587 24.2983C24.6349 24.5278 24.2743 24.6406 23.8769 24.6406L23.8707 24.6467Z" fill="white"/>
<path d="M7.11551 12.6309C7.18312 12.7519 7.3163 12.8543 7.53143 12.9097C9.30365 13.3709 12.7907 12.7826 13.0755 10.5442C13.1226 10.1773 12.9341 9.2836 12.4076 9.70995C11.8544 10.1568 11.4754 10.7779 10.9038 11.2166C10.3424 11.645 9.68677 11.8827 8.97584 11.8581C8.51485 11.8417 8.0129 11.7393 7.56216 11.8807C7.1565 12.0078 6.97005 12.3644 7.11756 12.6309H7.11551Z" fill="#333333"/>
<path d="M26.4933 12.6309C26.4257 12.7519 26.2926 12.8543 26.0774 12.9097C24.3052 13.3709 20.8181 12.7826 20.5333 10.5442C20.4862 10.1773 20.6747 9.2836 21.2013 9.70995C21.7544 10.1568 22.1335 10.7779 22.7051 11.2166C23.2665 11.645 23.9221 11.8827 24.633 11.8581C25.094 11.8417 25.596 11.7393 26.0467 11.8807C26.4524 12.0078 26.6388 12.3644 26.4913 12.6309H26.4933Z" fill="#333333"/>
<path d="M12.9234 15.6503C13.1262 15.7241 13.3208 15.8164 13.4929 15.9455C14.378 16.6096 13.4171 17.405 12.7963 17.7944C12.1223 18.2187 11.0303 18.9731 10.1903 18.8091C10.0591 18.7824 9.91982 18.7271 9.85426 18.6102C9.53669 18.0588 10.4218 17.7965 10.7803 17.6407C11.0467 17.5259 11.5671 17.2676 11.5363 16.9089C11.5261 16.8023 11.4626 16.7101 11.3868 16.6363C10.8602 16.1238 9.73337 16.2735 9.52644 15.4208C9.49775 15.306 9.5162 15.1768 9.59405 15.0866C9.66986 15.0005 9.78869 14.9657 9.90137 14.9452C10.6021 14.8263 11.2925 15.0682 11.9358 15.3265C12.2493 15.4536 12.5976 15.5294 12.9254 15.6503H12.9234Z" fill="#333333"/>
<path d="M20.685 15.6503C20.4821 15.7241 20.2875 15.8164 20.1154 15.9455C19.2303 16.6096 20.1912 17.405 20.812 17.7944C21.4861 18.2187 22.5781 18.9731 23.4181 18.8091C23.5492 18.7824 23.6885 18.7271 23.7541 18.6102C24.0717 18.0588 23.1866 17.7965 22.828 17.6407C22.5617 17.5259 22.0413 17.2676 22.072 16.9089C22.0823 16.8023 22.1458 16.7101 22.2216 16.6363C22.7481 16.1238 23.875 16.2735 24.0819 15.4208C24.1106 15.306 24.0921 15.1768 24.0143 15.0866C23.9385 15.0005 23.8196 14.9657 23.707 14.9452C23.0063 14.8263 22.3158 15.0682 21.6725 15.3265C21.359 15.4536 21.0107 15.5294 20.6829 15.6503H20.685Z" fill="#333333"/>
</svg>
