<svg width="34" height="34" viewBox="0 0 34 34" fill="none" xmlns="http://www.w3.org/2000/svg">
<path d="M24.9768 0H9.02321C4.03983 0 0 4.03982 0 9.0232V24.9768C0 29.9602 4.03983 34 9.02321 34H24.9768C29.9602 34 34 29.9602 34 24.9768V9.0232C34 4.03982 29.9602 0 24.9768 0Z" fill="#D2CEED"/>
<path d="M9.97326 18.2821C10.7351 18.2821 11.3528 17.3323 11.3528 16.1606C11.3528 14.9889 10.7351 14.0391 9.97326 14.0391C9.21138 14.0391 8.59375 14.9889 8.59375 16.1606C8.59375 17.3323 9.21138 18.2821 9.97326 18.2821Z" fill="#333333"/>
<path d="M23.7721 18.2821C24.534 18.2821 25.1516 17.3323 25.1516 16.1606C25.1516 14.9889 24.534 14.0391 23.7721 14.0391C23.0102 14.0391 22.3926 14.9889 22.3926 16.1606C22.3926 17.3323 23.0102 18.2821 23.7721 18.2821Z" fill="#333333"/>
<path d="M21.7688 25.2821C22.9516 25.2821 23.7653 24.163 23.2652 23.1852C22.2526 21.1969 19.84 19.7969 17.0256 19.7969C14.2112 19.7969 11.8007 21.1969 10.786 23.1852C10.2879 24.163 11.0996 25.2821 12.2824 25.2821H21.7668H21.7688Z" fill="#333333"/>
<path d="M3.65108 12.9176C3.74332 13.0693 3.92985 13.1985 4.22298 13.2682C6.66634 13.8482 11.469 13.1083 11.8626 10.298C11.9261 9.8368 11.6678 8.71556 10.9422 9.24851C10.1797 9.81015 9.65699 10.5911 8.86987 11.1405C8.09709 11.6796 7.19313 11.9788 6.21333 11.946C5.57789 11.9255 4.88711 11.7964 4.26397 11.9727C3.70438 12.1305 3.44815 12.5794 3.65108 12.9156V12.9176Z" fill="#333333"/>
<path d="M30.3497 12.9176C30.2574 13.0693 30.0709 13.1985 29.7778 13.2682C27.3344 13.8482 22.5317 13.1083 22.1382 10.298C22.0746 9.8368 22.3329 8.71556 23.0585 9.24851C23.8211 9.81015 24.3438 10.5911 25.1309 11.1405C25.9037 11.6796 26.8076 11.9788 27.7874 11.946C28.4229 11.9255 29.1136 11.7964 29.7368 11.9727C30.2964 12.1305 30.5526 12.5794 30.3497 12.9156V12.9176Z" fill="#333333"/>
</svg>
