<svg width="34" height="34" viewBox="0 0 34 34" fill="none" xmlns="http://www.w3.org/2000/svg">
<path d="M24.9768 0H9.02322C4.03983 0 0 4.03982 0 9.02321V24.9768C0 29.9602 4.03983 34 9.02322 34H24.9768C29.9602 34 34 29.9602 34 24.9768V9.02321C34 4.03982 29.9602 0 24.9768 0Z" fill="#6EA6BE"/>
<path d="M22.5702 24.2452H11.4275C11.075 24.2452 10.79 23.9603 10.79 23.6077C10.79 23.2551 11.075 22.9702 11.4275 22.9702H22.5702C22.9228 22.9702 23.2077 23.2551 23.2077 23.6077C23.2077 23.9603 22.9228 24.2452 22.5702 24.2452Z" fill="#333333"/>
<path d="M14.2749 13.6731C14.6525 11.3466 13.0727 9.15442 10.7461 8.77677C8.41962 8.39912 6.22746 9.979 5.84981 12.3055C5.47216 14.632 7.05204 16.8242 9.37856 17.2019C11.7051 17.5795 13.8972 15.9996 14.2749 13.6731Z" fill="white"/>
<path d="M11.4081 14.3299C12.1541 13.5838 12.1541 12.3742 11.4081 11.6281C10.662 10.8821 9.4524 10.8821 8.70633 11.6281C7.96027 12.3742 7.96027 13.5838 8.70633 14.3299C9.4524 15.0759 10.662 15.0759 11.4081 14.3299Z" fill="#333333"/>
<path d="M26.9574 15.9982C28.624 14.3315 28.624 11.6294 26.9574 9.96276C25.2908 8.29613 22.5886 8.29613 20.922 9.96276C19.2554 11.6294 19.2554 14.3315 20.922 15.9982C22.5886 17.6648 25.2908 17.6648 26.9574 15.9982Z" fill="white"/>
<path d="M25.2909 14.3313C26.0369 13.5853 26.0369 12.3757 25.2909 11.6296C24.5448 10.8835 23.3352 10.8835 22.5891 11.6296C21.8431 12.3757 21.8431 13.5853 22.5891 14.3313C23.3352 15.0774 24.5448 15.0774 25.2909 14.3313Z" fill="#333333"/>
</svg>
