<svg width="35" height="34" viewBox="0 0 35 34" fill="none" xmlns="http://www.w3.org/2000/svg">
<path d="M25.0393 0H9.08571C4.10233 0 0.0625 4.03983 0.0625 9.02322V24.9768C0.0625 29.9602 4.10233 34 9.08571 34H25.0393C30.0227 34 34.0625 29.9602 34.0625 24.9768V9.02322C34.0625 4.03983 30.0227 0 25.0393 0Z" fill="#939598"/>
<path d="M12.061 23.9064C11.7822 23.9666 11.5035 23.8281 11.5445 23.657C11.8929 22.2223 14.2317 21.1129 17.0666 21.1129C19.9015 21.1129 22.2403 22.2211 22.5888 23.6558C22.6298 23.8281 22.3489 23.9654 22.0722 23.9052L19.4013 23.3257C17.9132 23.0029 16.2774 23.0005 14.7872 23.3209L12.0631 23.9064H12.061Z" fill="#333333"/>
<path d="M12.2141 14.0108C12.4565 12.984 11.8205 11.955 10.7936 11.7127C9.76677 11.4703 8.73785 12.1063 8.49548 13.1332C8.25312 14.16 8.88909 15.189 9.91597 15.4313C10.9428 15.6737 11.9718 15.0377 12.2141 14.0108Z" fill="#333333"/>
<path d="M25.6243 14.0118C25.8667 12.9849 25.2307 11.956 24.2038 11.7136C23.1769 11.4712 22.148 12.1072 21.9056 13.1341C21.6633 14.161 22.2992 15.1899 23.3261 15.4322C24.353 15.6746 25.3819 15.0386 25.6243 14.0118Z" fill="#333333"/>
<path d="M32.0353 8.92684C32.0353 10.5667 31.3774 11.034 30.4734 11.034C29.5694 11.034 28.7598 10.5687 28.7598 8.92684C28.7598 7.28496 29.4321 3.89459 30.3361 3.89459C31.24 3.89459 32.0333 7.28701 32.0333 8.92684H32.0353Z" fill="#333333"/>
</svg>
