<svg width="34" height="34" viewBox="0 0 34 34" fill="none" xmlns="http://www.w3.org/2000/svg">
<path d="M25.0836 34H8.91641C3.99312 34 0 30.007 0 25.0793V8.92072C0 3.99506 3.99107 0 8.91641 0H25.0733C29.9946 0 33.9856 3.99096 33.9897 8.91457L34 25.0731C34.0041 30.0008 30.011 33.9979 25.0836 33.9979V34Z" fill="#A6D1FF"/>
<path d="M12.1262 15.5794C12.3684 14.5525 11.7328 13.5236 10.7064 13.2812C9.68 13.0389 8.65158 13.6748 8.40933 14.7017C8.16708 15.7286 8.80275 16.7575 9.82913 16.9999C10.8555 17.2422 11.8839 16.6063 12.1262 15.5794Z" fill="#333333"/>
<path d="M24.3721 16.9083C25.3464 16.5045 25.8091 15.387 25.4055 14.4122C25.0019 13.4374 23.8849 12.9745 22.9106 13.3783C21.9363 13.7821 21.4736 14.8996 21.8772 15.8744C22.2808 16.8491 23.3978 17.312 24.3721 16.9083Z" fill="#333333"/>
<path d="M10.6144 22.3573C14.8124 20.9122 19.6927 21.0003 23.8825 22.4475C25.4027 22.9722 26.8553 23.7101 28.1297 24.694C28.5272 25.0015 29.2565 25.6452 29.7216 25.0466C29.988 24.7022 29.7646 24.1304 29.5802 23.8024C29.1357 23.003 28.3469 22.4393 27.6278 21.9063C26.6832 21.2073 25.6322 20.6519 24.5484 20.2029C22.7024 19.4425 20.7192 19.0469 18.7318 18.9136C17.984 18.8624 17.2321 18.8501 16.4822 18.8726C16.4597 18.8726 16.4392 18.8726 16.4167 18.8726C15.3492 18.9075 14.2838 19.0182 13.2328 19.2026C11.2291 19.5532 9.27451 20.2419 7.50229 21.2422C7.3097 21.3508 7.11711 21.4636 6.92657 21.5804C6.29144 21.9678 5.67885 22.3593 5.31416 23.0378C5.18099 23.2838 5.10723 23.5769 5.18508 23.8454C5.31826 24.3005 5.80997 24.4686 6.23817 24.3763C6.91223 24.2328 7.45721 23.8434 8.04726 23.5134C8.6701 23.1649 9.31753 22.8574 9.98134 22.593C10.1924 22.509 10.4014 22.4311 10.6144 22.3593V22.3573Z" fill="#333333"/>
<path d="M13.6918 12.3088C13.8373 12.2719 13.9295 12.1284 13.9028 11.9767C13.8332 11.5688 13.6795 11.1732 13.4562 10.8227C13.2165 10.4476 8.26452 12.7372 7.76257 12.9791C6.55582 13.5592 5.23228 14.1946 4.05216 14.9592C3.75099 15.1539 4.00504 15.6315 4.339 15.4983C5.59287 15.0022 6.8324 14.4119 8.08832 13.9814C9.9302 13.3501 11.7987 12.7905 13.6898 12.3067L13.6918 12.3088Z" fill="#333333"/>
<path d="M20.5186 12.0918C20.3752 12.0446 20.2932 11.897 20.3301 11.7474C20.4264 11.3456 20.6046 10.9603 20.8525 10.6241C21.1148 10.2654 25.9049 12.8768 26.3925 13.1515C27.5583 13.8095 28.8367 14.531 29.9636 15.3714C30.2504 15.5867 29.9677 16.0458 29.6419 15.89C28.4249 15.312 27.2264 14.6417 26.0012 14.1293C24.2044 13.377 22.3768 12.6964 20.5206 12.0897L20.5186 12.0918Z" fill="#333333"/>
</svg>
