<svg width="147" height="124" viewBox="0 0 147 124" fill="none" xmlns="http://www.w3.org/2000/svg">
<path d="M26.1565 36.2014L25.9646 38.4983L25.5493 38.2986C24.4421 37.9657 22.186 37.6195 22.02 38.8978C21.8539 40.1762 24.5805 39.6968 25.9646 39.2973V41.6944M26.1565 36.2014C23.4576 36.0017 19.9438 36.5806 19.9438 38.4983C19.9438 40.4161 23.9577 41.4281 25.9646 41.6944M26.1565 36.2014C29.8935 36.4779 34.7092 37.3112 37.7984 38.3895M25.9646 41.6944C28.9045 42.1059 34.4372 42.5252 37.7984 41.7375M37.7984 38.3895C39.8107 39.0919 40.9338 39.8762 40.0821 40.6956C39.5907 41.1685 38.7888 41.5054 37.7984 41.7375M37.7984 38.3895C36.4143 38.9206 34.4766 40.3338 37.7984 41.7375" stroke="black"/>
<path d="M44.5 105C47.1588 108.081 51.4132 104.544 43.4991 106.95C41.5844 107.532 41.9994 102.96 37.9992 96.4761C35.4992 83.5081 32.4267 85.1184 41.8409 92.0866L44.5 105Z" fill="#A79BF2"/>
<path d="M39.1588 99.0547C38.8678 95.2502 41.7777 91.891 42.5852 90.962L45.0001 106C43.9097 106.135 39.4571 102.956 39.1588 99.0547Z" fill="black"/>
<path d="M136.216 71.8596C136.216 71.8596 137.68 71.3213 136.404 68.9665C135.641 67.5535 135.962 67.3853 136.346 67.4779C136.675 67.5578 136.946 67.8059 137.088 68.117C137.246 68.4661 137.467 69.0337 137.613 69.7781C137.755 70.5097 138.284 71.0943 139.001 71.2751C140.118 71.5568 144.241 72.9529 143.899 73.5963C143.674 74.0252 140.302 72.9193 140.302 72.9193C140.302 72.9193 144.724 75.9932 143.053 75.7998C141.381 75.6022 140.085 72.4021 137.617 72.6502C135.149 72.9025 136.212 71.8596 136.212 71.8596H136.216Z" fill="#333333"/>
<path d="M136.941 72.4021L136.566 72.6965C136.566 72.6965 122.164 72.6965 116.166 69.8832C116.166 69.8832 115.419 69.5931 115.782 69.2651C115.949 69.1137 116.199 69.0885 116.403 69.181C117.812 69.7823 124.894 72.5072 136.216 71.8638C136.216 71.8638 137.329 71.9143 136.941 72.4021Z" fill="#333333"/>
<path d="M139.476 78.2894C139.905 78.3189 140.293 78.0245 140.343 77.5956C140.385 77.2171 140.376 76.7798 140.201 76.456C139.822 75.7664 139.705 74.6604 140.568 75.0725C141.431 75.4846 140.873 77.44 141.452 78.0287C142.031 78.6174 144.599 79.6183 146.079 80.1523C147.555 80.6864 146.992 81.5484 145.746 81.0312C144.499 80.514 143.82 80.2701 143.82 80.2701C143.82 80.2701 146.796 82.709 145.554 82.7006C144.312 82.6922 142.181 79.2945 140.331 79.1263C138.48 78.9581 124.061 78.2642 117.671 73.0414C117.537 72.9321 117.579 72.4695 118.017 72.4527C118.237 72.4443 118.45 72.5284 118.617 72.6756C119.451 73.4115 124.469 77.2844 139.484 78.2936L139.476 78.2894Z" fill="#333333"/>
<path d="M58.5026 34.9893L19.9438 41.7889L58.6318 38.6393L58.5026 34.9893Z" fill="#333333"/>
<path d="M19.9438 41.7883L57.7398 41.3804L58.6318 38.6387L19.9438 41.7883Z" fill="black"/>
<path d="M63.98 28.9482C68.6604 28.1992 72.9458 31.461 73.6245 36.0742L73.6782 36.5244V36.5254C73.6896 36.6437 73.6974 36.7634 73.7056 36.8916V36.8926C73.7503 37.8541 73.8541 38.818 74.0591 39.7695L74.1538 40.1768C75.1084 44.0206 76.9913 49.3387 80.6021 52.96L80.9575 53.3047C82.9934 55.2199 85.2633 56.3433 87.4312 56.9756L87.8628 57.0957C91.4152 58.0343 95.1773 57.7827 98.6021 56.4873L99.2827 56.2148C108.471 52.3165 114.216 52.9231 117.858 54.6357C121.326 56.2669 122.923 58.8686 123.945 60.04L124.141 60.2549C124.796 60.9233 125.633 61.1906 126.444 61.252C127.149 61.3053 127.859 61.2052 128.469 61.0615L128.724 60.998L128.726 60.9971C129.384 60.8199 130.012 60.5417 130.583 60.167L130.583 60.168C131.072 59.8489 131.387 59.7182 131.563 59.6807C131.55 59.809 131.497 60.0238 131.36 60.3301C131.188 60.7128 130.917 61.174 130.555 61.6709L130.459 61.8027V63.1826L131.315 62.3213C131.816 61.8165 132.183 61.5952 132.414 61.5215C132.524 61.4862 132.583 61.491 132.603 61.4951C132.617 61.498 132.619 61.5011 132.624 61.5059C132.644 61.5297 132.703 61.6439 132.671 61.8926C132.649 62.0672 132.584 62.2704 132.471 62.4746L132.342 62.6777C127.575 69.2998 122.522 73.1837 117.494 75.0938C112.467 77.0028 107.424 76.9559 102.644 75.6475C93.3594 73.1058 85.0915 65.8085 80.0405 58.9307L79.562 58.2656C77.014 54.6637 74.9406 51.952 73.1665 49.9863C71.5078 48.1485 70.0821 46.9314 68.7427 46.2559L68.4761 46.1279V46.127C67.7335 45.7903 66.9271 45.704 66.1509 45.7754H66.1274L66.104 45.7783C61.4581 46.2239 57.3287 42.7653 56.9282 38.0527L56.9019 37.5928C56.7684 33.4911 59.6528 29.8452 63.5952 29.0195L63.98 28.9482Z" fill="white" stroke="black"/>
<path d="M122.519 41.772C121.777 38.4878 118.471 39.8839 118.471 39.8839C118.471 39.8839 122.794 36.4147 122.677 33.6435C122.56 30.8724 119.409 31.9447 119.409 31.9447C119.409 31.9447 123.707 28.938 123.227 25.8893C122.744 22.8406 119.538 23.7363 119.538 23.7363C119.538 23.7363 123.64 19.0728 122.66 15.8685C121.677 12.6642 119.017 14.3883 119.017 14.3883C119.017 14.3883 122.614 11.4405 121.877 8.69873C121.139 5.95699 117.316 7.16806 117.316 7.16806C117.316 7.16806 120.13 3.21525 119.259 0.881403C118.721 -0.560955 116.633 0.0487881 115.119 0.725813C113.085 3.13535 110.438 6.32283 107.016 10.528C94.9605 25.3426 97.0615 35.4854 94.5479 46.5196C93.8392 49.6314 92.2468 52.1587 90.5753 54.0762C87.4447 57.6716 90.296 63.3948 95.0231 62.9827C103.027 62.2846 112.214 56.162 112.214 56.162C114.815 54.6902 117.258 52.7895 119.405 50.771C120.851 48.2563 123.019 43.9965 122.514 41.7678L122.519 41.772Z" fill="black"/>
<path d="M68.6949 40.8131C68.5448 42.2386 67.0275 42.7138 65.2308 42.5204C63.4384 42.3311 62.0461 41.5448 62.1961 40.1234C62.3462 38.6979 63.8635 38.2227 65.6602 38.4162C67.4526 38.6054 68.8449 39.3917 68.6949 40.8131Z" fill="#A79BF2" fill-opacity="0.43"/>
<path d="M63.2756 37.6684C63.1714 37.6642 63.0672 37.6558 62.9588 37.639C60.8078 37.3194 60.2826 35.6247 60.2618 35.5532C60.1867 35.2967 60.3285 35.0276 60.5827 34.9519C60.8328 34.8762 61.0996 35.0192 61.1747 35.2715C61.1913 35.3262 61.5707 36.4573 63.0963 36.6844C64.5845 36.9073 65.3682 35.2799 65.3724 35.2631C65.4849 35.0192 65.7684 34.9183 66.006 35.0276C66.2477 35.1411 66.3478 35.4271 66.2394 35.6668C66.1977 35.7551 65.2556 37.7525 63.2714 37.6684H63.2756Z" fill="#004759"/>
<path d="M51.8331 112.066C47.6646 119.299 33.7 122.369 27.2388 123C-20.2822 118.626 7.43839 67.3518 27.2388 42.2612H33.0748M51.8331 112.066C44.6771 112.066 30.9071 98.1053 33.0748 42.2612M51.8331 112.066C54.9595 108.983 61.0455 101.974 60.3786 98.6099C59.7116 95.2458 43.2876 59.6424 35.159 42.2612H33.0748M51.8331 112.066C31.6158 113.748 32.8624 50.6715 33.0748 42.2612" stroke="black"/>
<path d="M23.4868 24.3896C24.9875 33.3045 26.8216 37.005 27.6553 36.3743C28.6975 35.5332 30.5733 35.9537 31.407 35.9537C32.074 31.244 26.4048 26.1418 23.4868 24.3896Z" stroke="black"/>
<path d="M34.1166 37.2159C32.866 36.5851 29.948 35.4497 28.2806 35.9544C26.6132 36.459 26.8217 40.2296 27.2385 42.0518H35.1587C35.6589 41.0426 35.1587 38.6876 34.1166 37.2159ZM34.1166 37.2159C37.0324 38.2251 39.0832 26.9834 39.7441 21.2363C31.9073 27.2917 31.3376 33.9141 31.8239 36.297L34.1166 37.2159Z" stroke="black"/>
<path d="M29.7402 39.7383C29.7402 40.4391 29.4067 41.967 28.0728 42.4716" stroke="black" stroke-width="0.5"/>
<path d="M33.2836 38.4766C33.2836 39.5548 32.9501 41.9054 31.6162 42.6817" stroke="black" stroke-width="0.5"/>
<path d="M32.4497 34.0619C33.0055 32.3799 34.5756 28.6794 36.4098 27.3337C38.2439 25.9881 36.3403 29.5765 35.1592 31.5389" stroke="black" stroke-width="0.5"/>
<path d="M30.9908 35.113C30.1571 32.8702 28.0729 28.3848 26.4055 28.3848C24.7381 28.3848 26.2665 30.4873 27.2392 31.5386" stroke="black" stroke-width="0.5"/>
<path d="M27.6556 42.8916C24.1818 48.7788 18.1097 60.3429 21.6112 59.5018C25.1128 58.6608 26.6829 51.442 27.0303 47.9378" stroke="black"/>
<path d="M23.4873 53.1949C23.001 53.6855 22.0283 55.0451 22.0283 56.559C22.0283 58.0728 23.4178 56.4889 24.1126 55.5077C24.8073 54.3863 26.0718 51.7231 25.5716 50.041" stroke="black" stroke-width="0.5"/>
<path d="M24.1127 100.503C22.7787 94.1109 27.4475 59.713 29.9486 43.313H27.4475C0.769025 79.3089 1.04693 102.886 4.52069 110.174C11.6071 109.614 25.4466 106.894 24.1127 100.503Z" fill="#D3E9D6" fill-opacity="0.5"/>
<path d="M35.4071 60.2181C35.7973 58.3287 34.4316 48.1608 33.6999 43.313H34.4316C42.2357 53.9533 42.1544 60.9225 41.1383 63.0771C39.0653 62.9113 35.0169 62.1075 35.4071 60.2181Z" fill="#D3E9D6" fill-opacity="0.5"/>
<path d="M36.4925 35.0091C36.3865 33.6597 38.1701 26.6869 39.0751 23.3692L38.5782 23.3081C32.382 30.0726 31.8505 34.9368 32.3593 36.5233C33.7812 36.5808 36.5985 36.3585 36.4925 35.0091Z" fill="#D3E9D6" fill-opacity="0.5"/>
<path d="M63.6519 95.4717C64.4556 101.177 61.6312 106.299 57.3487 106.902L50.1828 107.911C45.9002 108.515 41.7709 104.372 40.9673 98.667C40.1636 92.9616 42.988 87.8399 47.2705 87.2366L54.4364 86.2273C58.719 85.624 62.8483 89.7663 63.6519 95.4717Z" fill="#F2F2F2"/>
<path d="M49.9762 86.8559C49.9762 86.8559 52.8314 86.0383 52.079 84.0655C51.3266 82.0927 47.2269 83.1453 47.7929 87.1635L49.9762 86.8559Z" fill="#F2F2F2"/>
<path d="M52.8884 107.53C52.8884 107.53 55.8584 107.527 55.6802 109.631C55.502 111.735 51.2711 111.856 50.7051 107.838L52.8884 107.53Z" fill="#F2F2F2"/>
<path d="M51.6949 94.0116C50.7003 94.1517 49.7802 93.4536 49.6391 92.4516C49.498 91.4497 50.1894 90.5246 51.184 90.3845C52.1787 90.2444 53.0987 90.9425 53.2398 91.9444C53.381 92.9464 52.6896 93.8715 51.6949 94.0116Z" fill="#191919"/>
<path d="M51.019 102.245C51.1601 103.247 52.0805 103.945 53.0748 103.805C54.0691 103.665 54.7608 102.74 54.6197 101.738C54.4786 100.736 53.5582 100.038 52.5639 100.178C51.5696 100.318 50.8779 101.243 51.019 102.245Z" fill="#191919"/>
<path d="M55.623 94.1734C55.3288 92.2296 54.8533 90.8735 53.609 89.3511L53.6464 89.2982C54.5359 89.7827 55.2918 90.4939 55.6336 91.3916C55.9747 92.285 55.9674 93.2709 55.6886 94.1893L55.6229 94.1726L55.623 94.1734Z" fill="#191919"/>
<path d="M65.0532 99.5048C64.7585 97.7028 64.0181 96.4857 61.7809 95.2244L61.8626 95.1686C63.5515 95.497 64.9422 96.0603 65.4857 96.8621C66.0287 97.6598 65.8684 98.5969 65.1807 99.5101L65.0531 99.504L65.0532 99.5048Z" fill="#A79BF2"/>
<path d="M66.308 93.0953C65.0684 94.4899 63.7734 95.1388 61.1885 95.0152L61.227 95.1076C62.8354 95.7389 64.321 96.006 65.2212 95.6088C66.1188 95.2148 66.4983 94.3198 66.4187 93.1596L66.3075 93.0959L66.308 93.0953Z" fill="#A79BF2"/>
<path d="M56.1302 98.1956C57.4355 99.6515 57.2254 102.247 55.6437 103.443L55.5899 103.413C56.5468 101.787 56.4582 99.8647 56.1311 98.1955L56.1302 98.1956Z" fill="#191919"/>
<path d="M46.8673 99.8118C45.8001 98.2492 46.2905 95.7631 47.917 94.7931L47.9643 94.8283C46.8787 96.2882 46.7458 98.1584 46.8664 99.8118L46.8673 99.8118Z" fill="#191919"/>
</svg>
