<svg viewBox="0 0 180 83" fill="none" xmlns="http://www.w3.org/2000/svg">
<path d="M114.233 0.546082H65.8639C61.2317 0.546082 57.4766 4.25461 57.4766 8.8293V74.1704C57.4766 78.7451 61.2317 82.4537 65.8639 82.4537H114.233C118.865 82.4537 122.62 78.7451 122.62 74.1704V8.8293C122.62 4.25461 118.865 0.546082 114.233 0.546082Z" fill="#181818"/>
<path d="M117.552 0.546143H69.1832C64.551 0.546143 60.7959 4.25467 60.7959 8.82936V74.1705C60.7959 78.7452 64.551 82.4537 69.1832 82.4537H117.552C122.184 82.4537 125.939 78.7452 125.939 74.1705V8.82936C125.939 4.25467 122.184 0.546143 117.552 0.546143Z" fill="white"/>
<path fill-rule="evenodd" clip-rule="evenodd" d="M69.1826 1.09244C64.8559 1.09244 61.3484 4.55641 61.3484 8.82944V74.1706C61.3484 78.4436 64.8559 81.9076 69.1826 81.9076H117.551C121.878 81.9076 125.386 78.4436 125.386 74.1706V8.82944C125.386 4.55641 121.878 1.09244 117.551 1.09244H69.1826ZM60.2422 8.82944C60.2422 3.95308 64.2449 0 69.1826 0H117.551C122.489 0 126.492 3.95308 126.492 8.82944V74.1706C126.492 79.047 122.489 83 117.551 83H69.1826C64.2449 83 60.2422 79.047 60.2422 74.1706V8.82944Z" fill="#181818"/>
<rect x="69.5781" y="43.0039" width="47.3994" height="27.9973" rx="4" fill="#D3E8D6"/>
<rect width="35.2975" height="0.999902" rx="0.499951" transform="matrix(1 0 0 -1 75.6299 52.0031)" fill="white"/>
<rect width="35.2975" height="0.999902" rx="0.499951" transform="matrix(1 0 0 -1 75.6299 57.0026)" fill="white"/>
<rect width="25.2125" height="0.999902" rx="0.499951" transform="matrix(1 0 0 -1 75.6299 62.0021)" fill="white"/>
<path d="M118.995 65.0017C125.678 65.0017 131.097 59.6297 131.097 53.0029C131.097 46.3761 125.678 41.0041 118.995 41.0041C112.311 41.0041 106.893 46.3761 106.893 53.0029C106.893 59.6297 112.311 65.0017 118.995 65.0017Z" fill="#181818"/>
<rect x="0.110644" y="0.695478" width="17.5547" height="4.89374" rx="2.44687" transform="matrix(0.811804 0.58393 -0.590517 0.807025 129.967 57.0722)" fill="#D3E8D6" stroke="black"/>
<path fill-rule="evenodd" clip-rule="evenodd" d="M109.918 53.5029C109.918 46.6 115.336 41.0041 122.02 41.0041C128.704 41.0041 134.122 46.6 134.122 53.5029C134.122 60.4058 128.704 66.0016 122.02 66.0016C115.336 66.0016 109.918 60.4058 109.918 53.5029Z" fill="white"/>
<path fill-rule="evenodd" clip-rule="evenodd" d="M122.02 41.8407C115.784 41.8407 110.728 47.062 110.728 53.5029C110.728 59.9437 115.784 65.1651 122.02 65.1651C128.256 65.1651 133.312 59.9437 133.312 53.5029C133.312 47.062 128.256 41.8407 122.02 41.8407ZM109.918 53.5029C109.918 46.6 115.336 41.0041 122.02 41.0041C128.704 41.0041 134.122 46.6 134.122 53.5029C134.122 60.4058 128.704 66.0016 122.02 66.0016C115.336 66.0016 109.918 60.4058 109.918 53.5029Z" fill="#181818"/>
<path d="M1 82.0001H179" stroke="black" stroke-width="2" stroke-linecap="round"/>
<path d="M83.5017 34.7902C83.3056 34.9846 83.3043 35.3012 83.4987 35.4973C83.6931 35.6934 84.0097 35.6948 84.2058 35.5003L83.5017 34.7902ZM89.5266 29.5208L89.8786 29.1658C89.6837 28.9725 89.3694 28.9725 89.1745 29.1658L89.5266 29.5208ZM92.363 32.3331L92.0109 32.6881C92.2058 32.8814 92.5201 32.8814 92.715 32.6881L92.363 32.3331ZM98.7449 26.0056L99.0969 25.6505C98.902 25.4572 98.5877 25.4572 98.3928 25.6505L98.7449 26.0056ZM104.066 31.9851C104.262 32.1795 104.578 32.1781 104.773 31.982C104.967 31.7859 104.966 31.4694 104.77 31.2749L104.066 31.9851ZM84.2058 35.5003L89.8786 29.8759L89.1745 29.1658L83.5017 34.7902L84.2058 35.5003ZM89.1745 29.8759L92.0109 32.6881L92.715 31.978L89.8786 29.1658L89.1745 29.8759ZM92.715 32.6881L99.0969 26.3606L98.3928 25.6505L92.0109 31.978L92.715 32.6881ZM98.3928 26.3606L104.066 31.9851L104.77 31.2749L99.0969 25.6505L98.3928 26.3606ZM86.6902 15.2567H100.872V14.2567H86.6902V15.2567ZM104.627 18.975V33.0361H105.627V18.975H104.627ZM100.872 36.7545H86.6902V37.7545H100.872V36.7545ZM82.9355 33.0361V18.975H81.9355V33.0361H82.9355ZM86.6902 36.7545C84.6125 36.7545 82.9355 35.0857 82.9355 33.0361H81.9355C81.9355 35.646 84.0683 37.7545 86.6902 37.7545V36.7545ZM104.627 33.0361C104.627 35.0857 102.95 36.7545 100.872 36.7545V37.7545C103.494 37.7545 105.627 35.646 105.627 33.0361H104.627ZM100.872 15.2567C102.95 15.2567 104.627 16.9254 104.627 18.975H105.627C105.627 16.3651 103.494 14.2567 100.872 14.2567V15.2567ZM86.6902 14.2567C84.0683 14.2567 81.9355 16.3651 81.9355 18.975H82.9355C82.9355 16.9254 84.6125 15.2567 86.6902 15.2567V14.2567ZM90.4448 21.0842C90.4448 21.9689 89.7202 22.6933 88.8175 22.6933V23.6933C90.2644 23.6933 91.4448 22.5292 91.4448 21.0842H90.4448ZM88.8175 22.6933C87.9147 22.6933 87.1902 21.9689 87.1902 21.0842H86.1902C86.1902 22.5292 87.3705 23.6933 88.8175 23.6933V22.6933ZM87.1902 21.0842C87.1902 20.1995 87.9147 19.475 88.8175 19.475V18.475C87.3705 18.475 86.1902 19.6391 86.1902 21.0842H87.1902ZM88.8175 19.475C89.7202 19.475 90.4448 20.1995 90.4448 21.0842H91.4448C91.4448 19.6391 90.2644 18.475 88.8175 18.475V19.475Z" fill="#A5A5A5"/>
<path d="M129.079 53.0029C129.079 49.1373 125.918 46.0036 122.02 46.0036" stroke="#D3E8D6" stroke-width="2" stroke-linecap="round"/>
</svg>
