<svg viewBox="0 0 192 122" fill="none" xmlns="http://www.w3.org/2000/svg">
<path d="M48.3308 105.309C45.7803 105.309 43.7825 104.653 42.3372 103.339C40.892 101.944 40.1694 99.9738 40.1694 97.4292V87.8255H8.67148C6.03603 87.8255 3.91067 87.292 2.29539 86.2249C0.765131 85.1578 0 83.4751 0 81.1768C0 79.8634 0.340058 78.427 1.02017 76.8674C1.78531 75.3078 3.10303 73.2557 4.97335 70.7111L39.9143 21.8306C41.1045 20.1068 42.4222 18.7935 43.8675 17.8906C45.3127 16.9877 46.9705 16.5362 48.8408 16.5362C51.0512 16.5362 52.879 17.1929 54.3243 18.5062C55.7695 19.7374 56.4921 21.7074 56.4921 24.4162V74.7743H62.7407C65.2061 74.7743 67.034 75.3488 68.2242 76.498C69.4994 77.5651 70.137 79.1657 70.137 81.2999C70.137 83.434 69.4994 85.0757 68.2242 86.2249C67.034 87.292 65.2061 87.8255 62.7407 87.8255H56.4921V97.4292C56.4921 99.9738 55.7695 101.944 54.3243 103.339C52.879 104.653 50.8812 105.309 48.3308 105.309ZM40.1694 73.3675V36.3593H43.8675L13.7724 78.9605V73.3675H40.1694Z" fill="black"/>
<path d="M55.9486 105.309C53.3662 105.309 51.3434 104.653 49.8801 103.339C48.4168 101.944 47.6851 99.9738 47.6851 97.4292V87.8255H15.7935C13.1252 87.8255 10.9732 87.292 9.33776 86.2249C7.78837 85.1578 7.01367 83.4751 7.01367 81.1768C7.01367 79.8634 7.35798 78.427 8.0466 76.8674C8.82129 75.3078 10.1555 73.2557 12.0492 70.7111L47.4269 21.8306C48.632 20.1068 49.9662 18.7935 51.4295 17.8906C52.8928 16.9877 54.5713 16.5362 56.465 16.5362C58.703 16.5362 60.5537 17.1929 62.017 18.5062C63.4803 19.7374 64.212 21.7074 64.212 24.4162V74.7743H70.5386C73.0349 74.7743 74.8855 75.3488 76.0906 76.498C77.3818 77.5651 78.0274 79.1657 78.0274 81.2999C78.0274 83.434 77.3818 85.0757 76.0906 86.2249C74.8855 87.292 73.0349 87.8255 70.5386 87.8255H64.212V97.4292C64.212 99.9738 63.4803 101.944 62.017 103.339C60.5537 104.653 58.5309 105.309 55.9486 105.309ZM47.6851 74.7743V36.3593H51.4295L21.0411 78.3455L20.9582 74.7743H47.6851Z" fill="white"/>
<path fill-rule="evenodd" clip-rule="evenodd" d="M48.4328 103.7L48.4114 103.68C46.4825 101.852 45.6451 99.3684 45.6451 96.5067V88.9293H15.9811C13.0648 88.9293 10.4942 88.3505 8.43954 87.0185L8.41851 87.0048L8.39786 86.9907C6.20285 85.4886 5.25977 83.1712 5.25977 80.4712C5.25977 78.8609 5.68363 77.1903 6.44241 75.4828L6.45946 75.4444L6.47826 75.4068C7.32115 73.7207 8.72245 71.5936 10.6218 69.057L45.7342 20.8516C47.0443 18.9926 48.5501 17.4959 50.2781 16.4364C52.0833 15.3296 54.1347 14.7956 56.3664 14.7956C59.0251 14.7956 61.365 15.5828 63.2293 17.2348C65.2615 18.949 66.0621 21.5163 66.0621 24.4685V72.2561H70.341C73.0775 72.2561 75.5057 72.874 77.2196 74.465C79.0285 75.9803 79.7803 78.1421 79.7803 80.5927C79.7803 83.075 79.0113 85.2561 77.2208 86.8396L77.2171 86.8429C75.498 88.3554 73.0706 88.9293 70.341 88.9293H66.0621V96.5067C66.0621 99.3684 65.2247 101.852 63.2959 103.68L63.2744 103.7L63.2523 103.72C61.3307 105.434 58.7772 106.18 55.8536 106.18C52.93 106.18 50.3765 105.434 48.4549 103.72L48.4328 103.7ZM64.0589 87.0312H70.341C72.8197 87.0312 74.6574 86.5048 75.854 85.4519C77.136 84.3181 77.7771 82.6983 77.7771 80.5927C77.7771 78.487 77.136 76.9078 75.854 75.8549C74.6574 74.7211 72.8197 74.1542 70.341 74.1542H64.0589V24.4685C64.0589 21.7959 63.3324 19.8522 61.8794 18.6374C60.4263 17.3416 58.5887 16.6937 56.3664 16.6937C54.4861 16.6937 52.8194 17.1392 51.3663 18.03C49.9133 18.9209 48.5885 20.2167 47.3919 21.9174L12.2631 70.1453C10.3827 72.6559 9.05791 74.6806 8.28867 76.2194C7.60489 77.7581 7.26301 79.1754 7.26301 80.4712C7.26301 82.7388 8.03225 84.3991 9.57074 85.4519C11.1947 86.5048 13.3315 87.0312 15.9811 87.0312H47.6483V96.5067C47.6483 99.0173 48.3748 100.961 49.8279 102.338C51.2809 103.634 53.2895 104.281 55.8536 104.281C58.4178 104.281 60.4263 103.634 61.8794 102.338C63.3324 100.961 64.0589 99.0173 64.0589 96.5067V87.0312ZM47.6483 74.1542V41.4172L24.0826 74.1542H47.6483ZM27.8739 72.2561H45.6451V47.5686L27.8739 72.2561Z" fill="black"/>
<path d="M161.426 105.309C158.876 105.309 156.878 104.653 155.433 103.339C153.988 101.944 153.265 99.9738 153.265 97.4292V87.8255H121.767C119.132 87.8255 117.006 87.292 115.391 86.2249C113.861 85.1578 113.096 83.4751 113.096 81.1768C113.096 79.8634 113.436 78.427 114.116 76.8674C114.881 75.3078 116.199 73.2557 118.069 70.7111L153.01 21.8306C154.2 20.1068 155.518 18.7935 156.963 17.8906C158.408 16.9877 160.066 16.5362 161.937 16.5362C164.147 16.5362 165.975 17.1929 167.42 18.5062C168.865 19.7374 169.588 21.7074 169.588 24.4162V74.7743H175.836C178.302 74.7743 180.13 75.3488 181.32 76.498C182.595 77.5651 183.233 79.1657 183.233 81.2999C183.233 83.434 182.595 85.0757 181.32 86.2249C180.13 87.292 178.302 87.8255 175.836 87.8255H169.588V97.4292C169.588 99.9738 168.865 101.944 167.42 103.339C165.975 104.653 163.977 105.309 161.426 105.309ZM153.265 73.7824V36.3593H156.963L126.868 78.9605V73.7824H153.265Z" fill="black"/>
<path d="M168.167 105.309C165.585 105.309 163.562 104.653 162.099 103.339C160.636 101.944 159.904 99.9738 159.904 97.4292V87.8255H128.012C125.344 87.8255 123.192 87.292 121.557 86.2249C120.007 85.1578 119.232 83.4751 119.232 81.1768C119.232 79.8634 119.577 78.427 120.265 76.8674C121.04 75.3078 122.374 73.2557 124.268 70.7111L159.646 21.8306C160.851 20.1068 162.185 18.7935 163.648 17.8906C165.112 16.9877 166.79 16.5362 168.684 16.5362C170.922 16.5362 172.772 17.1929 174.236 18.5062C175.699 19.7374 176.431 21.7074 176.431 24.4162V74.7743H182.757C185.254 74.7743 187.104 75.3488 188.309 76.498C189.601 77.5651 190.246 79.1657 190.246 81.2999C190.246 83.434 189.601 85.0757 188.309 86.2249C187.104 87.292 185.254 87.8255 182.757 87.8255H176.431V97.4292C176.431 99.9738 175.699 101.944 174.236 103.339C172.772 104.653 170.75 105.309 168.167 105.309ZM159.904 74.7743V36.3593H163.648L133.177 78.9605V74.7743H159.904Z" fill="white"/>
<path fill-rule="evenodd" clip-rule="evenodd" d="M160.653 103.7L160.631 103.68C158.702 101.852 157.865 99.3684 157.865 96.5067V88.9293H128.201C125.285 88.9293 122.714 88.3505 120.659 87.0185L120.638 87.0048L120.618 86.9907C118.423 85.4886 117.479 83.1712 117.479 80.4712C117.479 78.8609 117.903 77.1903 118.662 75.4828L118.679 75.4444L118.698 75.4068C119.541 73.7207 120.942 71.5936 122.842 69.057L157.954 20.8516C159.264 18.9926 160.77 17.4959 162.498 16.4364C164.303 15.3296 166.354 14.7956 168.586 14.7956C171.245 14.7956 173.585 15.5828 175.449 17.2348C177.481 18.949 178.282 21.5163 178.282 24.4685V72.2561H182.561C185.297 72.2561 187.725 72.874 189.439 74.465C191.248 75.9803 192 78.1421 192 80.5927C192 83.075 191.231 85.2561 189.441 86.8396L189.437 86.8429C187.718 88.3554 185.29 88.9293 182.561 88.9293H178.282V96.5067C178.282 99.3684 177.444 101.852 175.516 103.68L175.494 103.7L175.472 103.72C173.55 105.434 170.997 106.18 168.073 106.18C165.15 106.18 162.596 105.434 160.675 103.72L160.653 103.7ZM176.279 87.0312H182.561C185.039 87.0312 186.877 86.5048 188.074 85.4519C189.356 84.3181 189.997 82.6983 189.997 80.5927C189.997 78.487 189.356 76.9078 188.074 75.8549C186.877 74.7211 185.039 74.1542 182.561 74.1542H176.279V24.4685C176.279 21.7959 175.552 19.8522 174.099 18.6374C172.646 17.3416 170.808 16.6937 168.586 16.6937C166.706 16.6937 165.039 17.1392 163.586 18.03C162.133 18.9209 160.808 20.2167 159.612 21.9174L124.483 70.1453C122.602 72.6559 121.278 74.6806 120.508 76.2194C119.825 77.7581 119.483 79.1754 119.483 80.4712C119.483 82.7388 120.252 84.3991 121.79 85.4519C123.414 86.5048 125.551 87.0312 128.201 87.0312H159.868V96.5067C159.868 99.0173 160.595 100.961 162.048 102.338C163.501 103.634 165.509 104.281 168.073 104.281C170.637 104.281 172.646 103.634 174.099 102.338C175.552 100.961 176.279 99.0173 176.279 96.5067V87.0312ZM159.868 74.1542V41.4172L136.302 74.1542H159.868ZM140.094 72.2561H157.865V47.5686L140.094 72.2561Z" fill="black"/>
<path d="M118.982 58.3118C126.436 71.1946 125.608 72.8049 132.234 94.5446C133.837 99.8041 122.489 102.156 99.9313 101.791C62.4844 101.185 65.8334 84.1721 85.0221 58.3118H118.982Z" fill="#A79BF2"/>
<path d="M102.576 69.626C94.4528 69.2016 88.1099 61.3579 86.3564 59.1821L118.795 57.8766C118.795 60.4876 110.904 70.0612 102.576 69.626Z" fill="black"/>
<path d="M102.138 8.70312C115.928 8.70312 127.124 17.1069 127.124 27.4581V44.7785C127.124 55.1298 115.928 63.5335 102.138 63.5335C88.3473 63.5335 77.1514 55.1298 77.1514 44.7785V27.4581C77.1514 17.1069 88.3473 8.70312 102.138 8.70312Z" fill="#F2F2F2"/>
<path d="M77.1509 38.2389C77.1509 38.2389 76.1662 31.199 71.2394 32.3236C66.3126 33.4482 67.4387 43.5161 77.1509 43.5161V38.2389Z" fill="#F2F2F2"/>
<path d="M127.124 38.2389C127.124 38.2389 128.108 31.199 133.035 32.3236C137.962 33.4482 136.836 43.5161 127.124 43.5161V38.2389Z" fill="#F2F2F2"/>
<path d="M94.6851 36.5535C94.6851 38.9577 92.7233 40.9051 90.3015 40.9051C87.8798 40.9051 85.918 38.9577 85.918 36.5535C85.918 34.1494 87.8798 32.2019 90.3015 32.2019C92.7233 32.2019 94.6851 34.1494 94.6851 36.5535Z" fill="#191919"/>
<path d="M113.972 40.9051C116.393 40.9051 118.356 38.9569 118.356 36.5535C118.356 34.1502 116.393 32.2019 113.972 32.2019C111.551 32.2019 109.589 34.1502 109.589 36.5535C109.589 38.9569 111.551 40.9051 113.972 40.9051Z" fill="#191919"/>
<path d="M96.3795 27.2979C91.6744 27.3464 88.3015 28.0207 84.2779 30.4613L84.165 30.3551C85.6102 28.4086 87.5481 26.8546 89.7898 26.3443C92.0213 25.834 94.3554 26.1804 96.439 27.1478L96.3774 27.2979H96.3795Z" fill="#191919"/>
<path d="M112.164 6.72806C107.795 6.82503 104.663 8.17351 100.927 13.0548L100.822 12.8424C102.164 8.94935 103.964 5.8414 106.045 4.82081C108.117 3.80022 110.285 4.49292 112.22 6.42788L112.162 6.72806H112.164Z" fill="#A79BF2"/>
<path d="M97.3923 1.61475C100.284 5.0182 101.389 8.30412 100.233 14.3892L100.465 14.3288C102.498 10.7275 103.627 7.29585 102.987 5.02964C102.352 2.77072 100.358 1.57248 97.5817 1.3739L97.3936 1.6162L97.3923 1.61475Z" fill="#A79BF2"/>
<path d="M106.082 27.4389C109.968 24.8315 116.05 26.196 118.356 30.3439L118.268 30.4613C114.733 27.6506 110.147 27.2188 106.082 27.4368V27.4389Z" fill="#191919"/>
<path d="M106.819 49.9321C102.76 51.9397 97.0312 49.9474 95.2754 45.7686L95.3744 45.6682C98.4722 48.7286 102.86 49.6679 106.819 49.9341L106.819 49.9321Z" fill="#191919"/>
<path fill-rule="evenodd" clip-rule="evenodd" d="M101.983 37.6326C102.252 37.3545 102.688 37.3545 102.956 37.6326C103.297 37.9843 103.767 38.5726 104.056 39.2096C104.323 39.7962 104.575 40.7628 103.874 41.4879C102.942 42.4525 101.605 42.646 100.634 42.646C100.254 42.646 99.9453 42.3271 99.9453 41.9339C99.9453 41.5406 100.254 41.2218 100.634 41.2218C101.498 41.2218 102.365 41.0354 102.901 40.4809C102.934 40.4465 103.033 40.3054 102.811 39.816C102.611 39.3769 102.255 38.9209 101.983 38.6396C101.714 38.3615 101.714 37.9107 101.983 37.6326Z" fill="black"/>
<path fill-rule="evenodd" clip-rule="evenodd" d="M92.8237 95.0943C92.7634 94.1868 92.7002 93.2352 92.7002 92.2544C92.7002 86.0057 88.4859 80.9402 83.2874 80.9402C78.0888 80.9402 73.8746 86.0057 73.8746 92.2544C73.8746 93.2352 73.8113 94.1868 73.751 95.0943C73.4271 99.9684 73.1879 103.569 83.2874 103.569C93.3869 103.569 93.1477 99.9684 92.8237 95.0943Z" fill="black"/>
<path d="M94.8301 92.2544C94.8301 93.2466 94.8955 94.2362 94.9565 95.1586C94.9918 95.6917 95.0256 96.2024 95.0444 96.6781C95.0975 98.022 95.0376 99.1461 94.6548 100.062C94.2854 100.946 93.5931 101.685 92.2578 102.215C90.8996 102.753 88.8872 103.069 85.9173 103.069C82.9474 103.069 80.9349 102.753 79.5768 102.215C78.2414 101.685 77.5492 100.946 77.1797 100.062C76.797 99.1461 76.7371 98.022 76.7902 96.6781C76.809 96.2024 76.8427 95.6917 76.878 95.1586C76.939 94.2362 77.0045 93.2466 77.0045 92.2544C77.0045 86.1918 81.0771 81.4402 85.9173 81.4402C90.7575 81.4402 94.8301 86.1918 94.8301 92.2544Z" fill="white" stroke="black"/>
<path d="M127.779 96.606C127.779 102.855 130.23 107.92 118.794 107.92C107.359 107.92 109.809 102.855 109.809 96.606C109.809 90.3573 113.832 85.2917 118.794 85.2917C123.757 85.2917 127.779 90.3573 127.779 96.606Z" fill="white"/>
<path fill-rule="evenodd" clip-rule="evenodd" d="M126.272 99.6451C126.213 98.6939 126.146 97.6223 126.146 96.606C126.146 90.8651 122.509 86.9081 118.794 86.9081C115.079 86.9081 111.443 90.8651 111.443 96.606C111.443 97.6223 111.376 98.6939 111.316 99.6451C111.284 100.166 111.254 100.65 111.238 101.07C111.188 102.396 111.258 103.323 111.533 104.013C111.767 104.599 112.192 105.123 113.199 105.541C114.285 105.992 116.024 106.304 118.794 106.304C121.565 106.304 123.304 105.992 124.39 105.541C125.397 105.123 125.822 104.599 126.056 104.013C126.331 103.323 126.401 102.396 126.351 101.07C126.335 100.65 126.305 100.166 126.272 99.6451ZM127.897 99.4459C127.84 98.5384 127.779 97.5868 127.779 96.606C127.779 90.3573 123.757 85.2917 118.794 85.2917C113.832 85.2917 109.809 90.3573 109.809 96.606C109.809 97.5867 109.749 98.5384 109.691 99.4459C109.382 104.32 109.154 107.92 118.794 107.92C128.435 107.92 128.206 104.32 127.897 99.4459Z" fill="black"/>
<path d="M121.863 110.531C133.484 110.531 142.904 101.374 142.904 90.0785C142.904 78.7828 133.484 69.6259 121.863 69.6259C110.243 69.6259 100.822 78.7828 100.822 90.0785C100.822 101.374 110.243 110.531 121.863 110.531Z" fill="#181818"/>
<path d="M136.868 99.3326C138.529 97.0793 141.726 96.5743 144.009 98.2047L161.772 110.888C164.055 112.518 164.559 115.667 162.898 117.92C161.238 120.173 158.04 120.678 155.757 119.048L137.995 106.365C135.711 104.734 135.207 101.586 136.868 99.3326Z" fill="#D3E8D6"/>
<path fill-rule="evenodd" clip-rule="evenodd" d="M160.799 112.208L143.037 99.5243C141.492 98.4213 139.329 98.7629 138.205 100.287C137.081 101.812 137.423 103.942 138.967 105.045L156.73 117.728C158.274 118.831 160.438 118.49 161.561 116.965C162.685 115.441 162.344 113.311 160.799 112.208ZM144.009 98.2047C141.726 96.5743 138.529 97.0793 136.868 99.3326C135.207 101.586 135.711 104.734 137.995 106.365L155.757 119.048C158.04 120.678 161.238 120.173 162.898 117.92C164.559 115.667 164.055 112.518 161.772 110.888L144.009 98.2047Z" fill="black"/>
<path fill-rule="evenodd" clip-rule="evenodd" d="M105.206 89.6434C105.206 77.6267 114.626 67.8853 126.247 67.8853C137.868 67.8853 147.288 77.6267 147.288 89.6434C147.288 101.66 137.868 111.401 126.247 111.401C114.626 111.401 105.206 101.66 105.206 89.6434Z" fill="white"/>
<path fill-rule="evenodd" clip-rule="evenodd" d="M126.247 69.3416C115.404 69.3416 106.614 78.431 106.614 89.6434C106.614 100.856 115.404 109.945 126.247 109.945C137.09 109.945 145.88 100.856 145.88 89.6434C145.88 78.431 137.09 69.3416 126.247 69.3416ZM105.206 89.6434C105.206 77.6267 114.626 67.8853 126.247 67.8853C137.868 67.8853 147.288 77.6267 147.288 89.6434C147.288 101.66 137.868 111.401 126.247 111.401C114.626 111.401 105.206 101.66 105.206 89.6434Z" fill="#181818"/>
<path fill-rule="evenodd" clip-rule="evenodd" d="M124.493 77.3022C124.493 76.4273 125.25 75.7181 126.183 75.7181C133.965 75.7181 140.274 81.633 140.274 88.9295C140.274 89.8044 139.518 90.5136 138.584 90.5136C137.651 90.5136 136.895 89.8044 136.895 88.9295C136.895 83.3828 132.099 78.8863 126.183 78.8863C125.25 78.8863 124.493 78.1771 124.493 77.3022Z" fill="#D3E8D6"/>
</svg>
