<svg width="19" height="18" viewBox="0 0 19 18" fill="none" xmlns="http://www.w3.org/2000/svg">
<path fill-rule="evenodd" clip-rule="evenodd" d="M14.6618 18C14.6618 16.5198 14.1232 15.0995 13.1635 14.0489C12.2038 12.9983 10.9007 12.4026 9.53838 12.3915C8.17606 12.3804 6.86493 12.9549 5.89083 13.9897C4.91673 15.0246 4.35865 16.4359 4.33824 17.916L9.49971 18H14.6618Z" fill="black"/>
<path d="M7.38235 3.3913C7.38235 4.29073 7.0198 5.15333 6.37446 5.78932C5.72911 6.42531 4.85383 6.78261 3.94118 6.78261C3.02852 6.78261 2.15324 6.42531 1.5079 5.78932C0.862552 5.15333 0.5 4.29073 0.5 3.3913L7.38235 3.3913Z" fill="#151313"/>
<path d="M18.5 3.3913C18.5 5.26427 16.9593 6.78261 15.0588 6.78261C13.1583 6.78261 11.6176 5.26427 11.6176 3.3913C11.6176 1.51834 13.1583 0 15.0588 0C16.9593 0 18.5 1.51834 18.5 3.3913Z" fill="#151313"/>
</svg>
