<svg width="18" height="18" viewBox="0 0 18 18" fill="none" xmlns="http://www.w3.org/2000/svg">
<path fill-rule="evenodd" clip-rule="evenodd" d="M14.1618 11.0893C14.1618 12.9132 13.6232 14.6631 12.6635 15.9576C11.7038 17.252 10.4007 17.9861 9.03838 17.9998C7.67606 18.0135 6.36493 17.3056 5.39083 16.0305C4.41673 14.7554 3.85865 13.0165 3.83824 11.1928L8.99971 11.0893H14.1618Z" fill="black"/>
<path d="M6.88235 3.65302e-07C6.88235 0.548738 6.79334 1.0921 6.62041 1.59907C6.44747 2.10604 6.194 2.56668 5.87446 2.9547C5.55491 3.34271 5.17556 3.6505 4.75806 3.8605C4.34055 4.07049 3.89308 4.17857 3.44118 4.17857C2.98927 4.17857 2.5418 4.07049 2.12429 3.8605C1.70679 3.6505 1.32744 3.34271 1.0079 2.9547C0.688354 2.56668 0.434879 2.10604 0.261944 1.59907C0.0890086 1.0921 -3.95065e-08 0.548738 0 0L6.88235 3.65302e-07Z" fill="#151313"/>
<path d="M18 3.65302e-07C18 0.548738 17.911 1.0921 17.7381 1.59907C17.5651 2.10604 17.3116 2.56668 16.9921 2.9547C16.6726 3.34271 16.2932 3.6505 15.8757 3.8605C15.4582 4.07049 15.0107 4.17857 14.5588 4.17857C14.1069 4.17857 13.6594 4.07049 13.2419 3.8605C12.8244 3.6505 12.4451 3.34271 12.1255 2.9547C11.806 2.56668 11.5525 2.10604 11.3796 1.59907C11.2067 1.0921 11.1176 0.548738 11.1176 0L18 3.65302e-07Z" fill="#151313"/>
</svg>
