<svg width="19" height="18" viewBox="0 0 19 18" fill="none" xmlns="http://www.w3.org/2000/svg">
<path fill-rule="evenodd" clip-rule="evenodd" d="M14.6618 12.3913C14.6618 13.8715 14.1232 15.2918 13.1635 16.3424C12.2038 17.393 10.9007 17.9888 9.53838 17.9998C8.17606 18.0109 6.86493 17.4364 5.89083 16.4016C4.91673 15.3667 4.35865 13.9554 4.33824 12.4753L9.49971 12.3913H14.6618Z" fill="#151313"/>
<path d="M7.38235 3.3913C7.38235 5.26427 5.84169 6.78261 3.94118 6.78261C2.04067 6.78261 0.5 5.26427 0.5 3.3913C0.5 1.51834 2.04067 0 3.94118 0C5.84169 0 7.38235 1.51834 7.38235 3.3913Z" fill="#151313"/>
<path d="M18.5 3.3913C18.5 5.26427 16.9593 6.78261 15.0588 6.78261C13.1583 6.78261 11.6176 5.26427 11.6176 3.3913C11.6176 1.51834 13.1583 0 15.0588 0C16.9593 0 18.5 1.51834 18.5 3.3913Z" fill="#151313"/>
</svg>
