<svg width="19" height="18" viewBox="0 0 19 18" fill="none" xmlns="http://www.w3.org/2000/svg">
<path fill-rule="evenodd" clip-rule="evenodd" d="M14.6618 18C14.6618 16.1761 14.1232 14.4262 13.1635 13.1317C12.2038 11.8372 10.9007 11.1031 9.53838 11.0895C8.17606 11.0758 6.86493 11.7837 5.89083 13.0588C4.91673 14.3339 4.35865 16.0728 4.33824 17.8964L9.49971 18H14.6618Z" fill="black"/>
<path d="M7.38235 0C7.38235 1.10823 7.0198 2.17106 6.37446 2.9547C5.72911 3.73833 4.85383 4.17857 3.94118 4.17857C3.02852 4.17857 2.15324 3.73833 1.5079 2.9547C0.862552 2.17106 0.5 1.10823 0.5 6.30947e-07L7.38235 0Z" fill="#151313"/>
<path d="M18.5 0C18.5 1.10823 18.1374 2.17106 17.4921 2.9547C16.8468 3.73833 15.9715 4.17857 15.0588 4.17857C14.1462 4.17857 13.2709 3.73833 12.6255 2.9547C11.9802 2.17106 11.6176 1.10823 11.6176 6.30947e-07L18.5 0Z" fill="#151313"/>
</svg>
