<svg width="19" height="18" viewBox="0 0 19 18" fill="none" xmlns="http://www.w3.org/2000/svg">
<path fill-rule="evenodd" clip-rule="evenodd" d="M14.7412 18C14 18 15 18 14.5 17C14 16 11.5288 15.5 9.5 15.5C8.13003 15.4863 4.97957 15.725 4 17C3.5 17.6508 3.96049 17.8965 4.35978 17.8965L9.55022 18H14.7412Z" fill="black"/>
<path d="M7.42098 0.00166239C7.42098 1.10979 7.05639 2.17252 6.40743 2.95608C5.75846 3.73965 4.87827 4.17985 3.96049 4.17985C3.04271 4.17985 2.16252 3.73965 1.51355 2.95608C0.864587 2.17252 0.5 1.10979 0.5 0.00166297L7.42098 0.00166239Z" fill="#151313"/>
<path d="M18.5 0C18.5 2.30755 16.9507 4.17819 15.0395 4.17819C13.1283 4.17819 11.579 2.30755 11.579 0C11.5863 0.272343 13.1283 0 15.0395 0C16.9507 0 18.5 0 18.5 0Z" fill="#151313"/>
</svg>
