<svg width="35" height="34" viewBox="0 0 35 34" fill="none" xmlns="http://www.w3.org/2000/svg">
<path d="M25.8987 0H9.94509C4.96171 0 0.921875 4.03982 0.921875 9.02321V24.9768C0.921875 29.9602 4.96171 34 9.94509 34H25.8987C30.882 34 34.9219 29.9602 34.9219 24.9768V9.02321C34.9219 4.03982 30.882 0 25.8987 0Z" fill="#A6D1FF"/>
<path d="M23.9032 24.2452H12.7605C12.408 24.2452 12.123 23.9603 12.123 23.6077C12.123 23.2551 12.408 22.9702 12.7605 22.9702H23.9032C24.2558 22.9702 24.5407 23.2551 24.5407 23.6077C24.5407 23.9603 24.2558 24.2452 23.9032 24.2452Z" fill="#333333"/>
<path d="M13.7358 13.3734C13.9048 12.332 13.1976 11.3507 12.1561 11.1816C11.1147 11.0126 10.1334 11.7198 9.9643 12.7612C9.79525 13.8027 10.5025 14.784 11.5439 14.9531C12.5854 15.1221 13.5667 14.4149 13.7358 13.3734Z" fill="#333333"/>
<path d="M27.0676 13.4832C27.31 12.4563 26.674 11.4274 25.6472 11.185C24.6203 10.9427 23.5914 11.5787 23.349 12.6055C23.1066 13.6324 23.7426 14.6613 24.7695 14.9037C25.7964 15.1461 26.8253 14.5101 27.0676 13.4832Z" fill="#333333"/>
</svg>
