<svg width="35" height="34" viewBox="0 0 35 34" fill="none" xmlns="http://www.w3.org/2000/svg">
<path d="M26.0012 0H9.84259C4.91581 0 0.921875 3.99394 0.921875 8.92072V25.0793C0.921875 30.0061 4.91581 34 9.84259 34H26.0012C30.9279 34 34.9219 30.0061 34.9219 25.0793V8.92072C34.9219 3.99394 30.9279 0 26.0012 0Z" fill="#D2CEED"/>
<path d="M10.549 19.5837C11.363 19.5837 12.0228 18.4704 12.0228 17.0972C12.0228 15.724 11.363 14.6108 10.549 14.6108C9.73504 14.6108 9.0752 15.724 9.0752 17.0972C9.0752 18.4704 9.73504 19.5837 10.549 19.5837Z" fill="#333333"/>
<path d="M25.298 19.5837C26.112 19.5837 26.7718 18.4704 26.7718 17.0972C26.7718 15.724 26.112 14.6108 25.298 14.6108C24.4841 14.6108 23.8242 15.724 23.8242 17.0972C23.8242 18.4704 24.4841 19.5837 25.298 19.5837Z" fill="#333333"/>
</svg>
