<svg width="35" height="34" viewBox="0 0 35 34" fill="none" xmlns="http://www.w3.org/2000/svg">
<path d="M25.8987 0H9.94509C4.96171 0 0.921875 4.03982 0.921875 9.02321V24.9768C0.921875 29.9602 4.96171 34 9.94509 34H25.8987C30.882 34 34.9219 29.9602 34.9219 24.9768V9.02321C34.9219 4.03982 30.882 0 25.8987 0Z" fill="#FFB473"/>
<path d="M23.7548 24.2452H12.6121C12.2595 24.2452 11.9746 23.9603 11.9746 23.6077C11.9746 23.2551 12.2595 22.9702 12.6121 22.9702H23.7548C24.1074 22.9702 24.3923 23.2551 24.3923 23.6077C24.3923 23.9603 24.1074 24.2452 23.7548 24.2452Z" fill="#333333"/>
<path d="M14.3176 14.3466H6.13279C5.88066 14.3466 5.67773 14.1437 5.67773 13.8916C5.67773 13.6395 5.88066 13.4365 6.13279 13.4365H14.3176C14.5698 13.4365 14.7727 13.6395 14.7727 13.8916C14.7727 14.1437 14.5698 14.3466 14.3176 14.3466Z" fill="#333333"/>
<path d="M29.8694 14.3466H21.6845C21.4324 14.3466 21.2295 14.1437 21.2295 13.8916C21.2295 13.6395 21.4324 13.4365 21.6845 13.4365H29.8694C30.1215 13.4365 30.3244 13.6395 30.3244 13.8916C30.3244 14.1437 30.1215 14.3466 29.8694 14.3466Z" fill="#333333"/>
</svg>
