<svg width="35" height="34" viewBox="0 0 35 34" fill="none" xmlns="http://www.w3.org/2000/svg">
<path d="M25.8987 0H9.94509C4.96171 0 0.921875 4.03983 0.921875 9.02322V24.9768C0.921875 29.9602 4.96171 34 9.94509 34H25.8987C30.882 34 34.9219 29.9602 34.9219 24.9768V9.02322C34.9219 4.03983 30.882 0 25.8987 0Z" fill="#AACA7E"/>
<path d="M12.9204 23.9063C12.6416 23.9665 12.3628 23.828 12.4038 23.6569C12.7523 22.2222 15.0911 21.1128 17.926 21.1128C20.7609 21.1128 23.0997 22.221 23.4481 23.6557C23.4891 23.828 23.2083 23.9653 22.9316 23.9051L20.2607 23.3257C18.7726 23.0028 17.1368 23.0004 15.6466 23.3209L12.9224 23.9063H12.9204Z" fill="#333333"/>
<path d="M13.0735 14.011C13.3159 12.9842 12.6799 11.9552 11.653 11.7129C10.6261 11.4705 9.59722 12.1065 9.35486 13.1333C9.11249 14.1602 9.74847 15.1892 10.7753 15.4315C11.8022 15.6739 12.8311 15.0379 13.0735 14.011Z" fill="#333333"/>
<path d="M26.4837 14.012C26.726 12.9851 26.0901 11.9562 25.0632 11.7138C24.0363 11.4715 23.0074 12.1074 22.765 13.1343C22.5226 14.1612 23.1586 15.1901 24.1855 15.4325C25.2124 15.6749 26.2413 15.0389 26.4837 14.012Z" fill="#333333"/>
<path d="M32.8947 8.92678C32.8947 10.5666 32.2367 11.034 31.3328 11.034C30.4288 11.034 29.6191 10.5687 29.6191 8.92678C29.6191 7.28489 30.2915 3.89453 31.1954 3.89453C32.0994 3.89453 32.8927 7.28694 32.8927 8.92678H32.8947Z" fill="#333333"/>
</svg>
