<svg width="35" height="34" viewBox="0 0 35 34" fill="none" xmlns="http://www.w3.org/2000/svg">
<path d="M26.0012 0H9.84259C4.91582 0 0.921875 3.99394 0.921875 8.92072V25.0793C0.921875 30.0061 4.91582 34 9.84259 34H26.0012C30.9279 34 34.9219 30.0061 34.9219 25.0793V8.92072C34.9219 3.99394 30.9279 0 26.0012 0Z" fill="#A6D1FF"/>
<path d="M10.5471 16.0602C11.361 16.0602 12.0209 14.947 12.0209 13.5738C12.0209 12.2006 11.361 11.0874 10.5471 11.0874C9.73309 11.0874 9.07324 12.2006 9.07324 13.5738C9.07324 14.947 9.73309 16.0602 10.5471 16.0602Z" fill="#333333"/>
<path d="M25.2951 16.0602C26.1091 16.0602 26.7689 14.947 26.7689 13.5738C26.7689 12.2006 26.1091 11.0874 25.2951 11.0874C24.4811 11.0874 23.8213 12.2006 23.8213 13.5738C23.8213 14.947 24.4811 16.0602 25.2951 16.0602Z" fill="#333333"/>
<path d="M8.47266 22.4185C8.68789 23.5766 9.70253 24.456 10.9222 24.456H11.2317V22.4185H8.47266Z" fill="white"/>
<path d="M25.207 24.4396C26.2975 24.3145 27.1748 23.4864 27.3716 22.4185H25.207V24.4396Z" fill="white"/>
<path d="M27.3778 21.5085C27.1974 20.42 26.3119 19.5694 25.207 19.4443V21.5085H27.3778Z" fill="white"/>
<path d="M24.2967 19.4282H21.9395V21.5108H24.2967V19.4282Z" fill="white"/>
<path d="M14.4998 19.4282H12.1426V21.5108H14.4998V19.4282Z" fill="white"/>
<path d="M17.7645 19.4282H15.4072V21.5108H17.7645V19.4282Z" fill="white"/>
<path d="M21.0321 19.4282H18.6748V21.5108H21.0321V19.4282Z" fill="white"/>
<path d="M11.232 19.4282H10.9225C9.68848 19.4282 8.66358 20.3301 8.4668 21.5108H11.232V19.4282Z" fill="white"/>
<path d="M21.0321 22.4185H18.6748V24.456H21.0321V22.4185Z" fill="white"/>
<path d="M17.7645 22.4185H15.4072V24.456H17.7645V22.4185Z" fill="white"/>
<path d="M14.4998 22.4185H12.1426V24.456H14.4998V22.4185Z" fill="white"/>
<path d="M24.2967 22.4185H21.9395V24.456H24.2967V22.4185Z" fill="white"/>
<path d="M24.9223 18.5177H10.9222C9.04663 18.5177 7.51953 20.0448 7.51953 21.9203V21.9654C7.51953 21.7133 7.72246 21.5104 7.97459 21.5104H8.00738C8.20826 20.0776 9.43404 18.9727 10.9222 18.9727H11.2789C11.3527 18.821 11.5064 18.7165 11.6868 18.7165C11.8672 18.7165 12.0209 18.821 12.0947 18.9727H14.5462C14.62 18.821 14.7738 18.7165 14.9542 18.7165C15.1345 18.7165 15.2883 18.821 15.3621 18.9727H17.8136C17.8874 18.821 18.0412 18.7165 18.2215 18.7165C18.4019 18.7165 18.5556 18.821 18.6294 18.9727H21.081C21.1548 18.821 21.3085 18.7165 21.4889 18.7165C21.6693 18.7165 21.823 18.821 21.8968 18.9727H24.3484C24.4222 18.821 24.5759 18.7165 24.7563 18.7165C24.9367 18.7165 25.0986 18.8272 25.1703 18.985C26.554 19.0978 27.6629 20.1657 27.8453 21.5268C28.038 21.5801 28.1815 21.7543 28.1815 21.9634C28.1815 22.1725 28.036 22.3528 27.8392 22.402C27.6404 23.7303 26.5581 24.7675 25.2093 24.8966C25.1908 25.1303 24.9982 25.3169 24.7583 25.3169C24.5185 25.3169 24.334 25.1385 24.3094 24.911H21.9419C21.9173 25.1385 21.7267 25.3169 21.493 25.3169C21.2593 25.3169 21.0687 25.1385 21.0441 24.911H18.6766C18.652 25.1385 18.4614 25.3169 18.2277 25.3169C17.994 25.3169 17.8034 25.1385 17.7788 24.911H15.4113C15.3867 25.1385 15.196 25.3169 14.9623 25.3169C14.7287 25.3169 14.538 25.1385 14.5134 24.911H12.1459C12.1213 25.1385 11.9307 25.3169 11.697 25.3169C11.4633 25.3169 11.2727 25.1385 11.2481 24.911H10.9324C9.46069 24.911 8.24311 23.8308 8.02378 22.4184H7.98484C7.73271 22.4184 7.52978 22.2155 7.52978 21.9634C7.52978 23.839 9.05688 25.366 10.9324 25.366H24.9326C26.8081 25.366 28.3352 23.839 28.3352 21.9634V21.9183C28.3352 20.0427 26.8081 18.5156 24.9326 18.5156L24.9223 18.5177Z" fill="#333333"/>
<path d="M21.0293 24.4561H18.6721V24.8619C18.6721 24.8783 18.668 24.8947 18.668 24.9111H21.0355C21.0355 24.8947 21.0314 24.8783 21.0314 24.8619V24.4561H21.0293Z" fill="#333333"/>
<path d="M11.2319 24.456H10.9223C9.70271 24.456 8.68806 23.5766 8.47283 22.4185H8.01367C8.233 23.8287 9.44853 24.911 10.9223 24.911H11.238C11.238 24.8946 11.2339 24.8782 11.2339 24.8618V24.456H11.2319Z" fill="#333333"/>
<path d="M21.9397 19.4282H24.297V19.172C24.297 19.1002 24.3154 19.0346 24.3441 18.9731H21.8926C21.9213 19.0326 21.9397 19.1002 21.9397 19.172V19.4282Z" fill="#333333"/>
<path d="M17.7647 24.4561H15.4074V24.8619C15.4074 24.8783 15.4033 24.8947 15.4033 24.9111H17.7708C17.7708 24.8947 17.7667 24.8783 17.7667 24.8619V24.4561H17.7647Z" fill="#333333"/>
<path d="M10.9226 19.4282H11.2321V19.172C11.2321 19.1002 11.2506 19.0346 11.2793 18.9731H10.9226C9.43447 18.9731 8.20664 20.078 8.00781 21.5108H8.46697C8.66375 20.3322 9.68865 19.4282 10.9226 19.4282Z" fill="#333333"/>
<path d="M24.2969 24.4561H21.9396V24.8619C21.9396 24.8783 21.9355 24.8947 21.9355 24.9111H24.3031C24.3031 24.8947 24.299 24.8783 24.299 24.8619V24.4561H24.2969Z" fill="#333333"/>
<path d="M14.4971 24.4561H12.1398V24.8619C12.1398 24.8783 12.1357 24.8947 12.1357 24.9111H14.5033C14.5033 24.8947 14.4992 24.8783 14.4992 24.8619V24.4561H14.4971Z" fill="#333333"/>
<path d="M18.6741 19.4282H21.0314V19.172C21.0314 19.1002 21.0498 19.0346 21.0785 18.9731H18.627C18.6557 19.0326 18.6741 19.1002 18.6741 19.172V19.4282Z" fill="#333333"/>
<path d="M15.4065 19.4282H17.7638V19.172C17.7638 19.1002 17.7822 19.0346 17.8109 18.9731H15.3594C15.3881 19.0326 15.4065 19.1002 15.4065 19.172V19.4282Z" fill="#333333"/>
<path d="M25.2071 19.4445C26.3119 19.5716 27.1975 20.4223 27.3778 21.5087H27.7202C27.7612 21.5087 27.8022 21.5169 27.839 21.5271C27.6566 20.164 26.5477 19.0981 25.1641 18.9854C25.1887 19.0427 25.2051 19.1042 25.2051 19.1719V19.4466L25.2071 19.4445Z" fill="#333333"/>
<path d="M12.1419 19.4282H14.4991V19.172C14.4991 19.1002 14.5176 19.0346 14.5463 18.9731H12.0947C12.1234 19.0326 12.1419 19.1002 12.1419 19.172V19.4282Z" fill="#333333"/>
<path d="M27.3718 22.4187C27.175 23.4846 26.2977 24.3148 25.2072 24.4398V24.8621C25.2072 24.8744 25.2052 24.8847 25.2031 24.897C26.5539 24.7699 27.6342 23.7306 27.833 22.4023C27.7961 22.4105 27.7592 22.4187 27.7203 22.4187H27.3698H27.3718Z" fill="#333333"/>
<path d="M17.7645 21.9634H15.4072V22.4184H17.7645V21.9634Z" fill="#333333"/>
<path d="M24.2967 21.5088H21.9395V21.9638H24.2967V21.5088Z" fill="#333333"/>
<path d="M21.0321 21.5088H18.6748V21.9638H21.0321V21.5088Z" fill="#333333"/>
<path d="M21.0321 21.9634H18.6748V22.4184H21.0321V21.9634Z" fill="#333333"/>
<path d="M25.207 21.9638H27.4147V21.9187C27.4147 21.7794 27.4003 21.642 27.3778 21.5088H25.207V21.9638Z" fill="#333333"/>
<path d="M17.7645 21.5088H15.4072V21.9638H17.7645V21.5088Z" fill="#333333"/>
<path d="M25.207 22.0497H27.3716C27.3983 21.8283 27.4147 21.6008 27.4147 21.3691H25.207V22.0497Z" fill="#333333"/>
<path d="M24.2967 21.9634H21.9395V22.4184H24.2967V21.9634Z" fill="#333333"/>
<path d="M14.4998 21.5088H12.1426V21.9638H14.4998V21.5088Z" fill="#333333"/>
<path d="M11.2318 21.5088H8.46659C8.44404 21.642 8.42969 21.7794 8.42969 21.9187V21.9638H11.2318V21.5088Z" fill="#333333"/>
<path d="M14.4998 21.9634H12.1426V22.4184H14.4998V21.9634Z" fill="#333333"/>
<path d="M11.2318 22.4184V21.9634H8.42969C8.42969 22.1192 8.44609 22.2708 8.47273 22.4184H11.2318Z" fill="#333333"/>
<path d="M27.8699 21.9635C27.8699 22.1131 27.8556 22.2586 27.833 22.4021C28.0298 22.3529 28.1753 22.1746 28.1753 21.9635C28.1753 21.7523 28.0318 21.5802 27.8392 21.5269C27.8556 21.656 27.8679 21.7851 27.8679 21.9184V21.9635H27.8699Z" fill="#333333"/>
<path d="M7.97459 22.4189H8.01353C7.99099 22.2713 7.97459 22.1196 7.97459 21.9638V21.9187C7.97459 21.7794 7.98689 21.642 8.00738 21.5088H7.97459C7.72246 21.5088 7.51953 21.7117 7.51953 21.9638C7.51953 22.216 7.72246 22.4189 7.97459 22.4189Z" fill="#333333"/>
<path d="M27.3782 21.5088C27.4008 21.642 27.4151 21.7794 27.4151 21.9187V21.9638C27.4151 22.1196 27.3987 22.2713 27.3721 22.4189H27.7226C27.7615 22.4189 27.7984 22.4127 27.8353 22.4025C27.8558 22.259 27.8722 22.1135 27.8722 21.9638V21.9187C27.8722 21.7855 27.8599 21.6543 27.8435 21.5272C27.8046 21.517 27.7656 21.5088 27.7246 21.5088H27.3823H27.3782Z" fill="#333333"/>
<path d="M7.97461 21.9638H8.42966V21.9187C8.42966 21.7794 8.44402 21.642 8.46656 21.5088H8.00741C7.98896 21.6441 7.97461 21.7794 7.97461 21.9187V21.9638Z" fill="#333333"/>
<path d="M8.42966 21.9634H7.97461C7.97461 22.1192 7.99101 22.2688 8.01356 22.4184H8.47271C8.44606 22.2708 8.42966 22.1192 8.42966 21.9634Z" fill="#333333"/>
<path d="M11.6875 19.4282H11.2324V21.5108H11.6875V19.4282Z" fill="#333333"/>
<path d="M11.6875 22.4185H11.2324V24.456H11.6875V22.4185Z" fill="#333333"/>
<path d="M12.1426 19.4282H11.6875V21.5108H12.1426V19.4282Z" fill="#333333"/>
<path d="M12.1426 22.4185H11.6875V24.456H12.1426V22.4185Z" fill="#333333"/>
<path d="M11.6873 25.317C11.921 25.317 12.1116 25.1387 12.1362 24.9111H11.2363C11.2609 25.1387 11.4516 25.317 11.6852 25.317H11.6873Z" fill="#333333"/>
<path d="M11.6872 18.7148C11.5068 18.7148 11.3531 18.8194 11.2793 18.9711H12.0951C12.0213 18.8194 11.8676 18.7148 11.6872 18.7148Z" fill="#333333"/>
<path d="M12.1425 24.4561H11.6875H11.2324V24.8619C11.2324 24.8783 11.2365 24.8947 11.2365 24.9111H12.1364C12.1364 24.8947 12.1405 24.8783 12.1405 24.8619V24.4561H12.1425Z" fill="#333333"/>
<path d="M11.2324 19.4282H11.6875H12.1425V19.172C12.1425 19.1002 12.1241 19.0346 12.0954 18.9731H11.2796C11.2509 19.0326 11.2324 19.1002 11.2324 19.172V19.4282Z" fill="#333333"/>
<path d="M11.6875 21.9634H11.2324V22.4184H11.6875V21.9634Z" fill="#333333"/>
<path d="M11.6875 21.5088H11.2324V21.9638H11.6875V21.5088Z" fill="#333333"/>
<path d="M12.1426 21.5088H11.6875V21.9638H12.1426V21.5088Z" fill="#333333"/>
<path d="M12.1426 21.9634H11.6875V22.4184H12.1426V21.9634Z" fill="#333333"/>
<path d="M15.4072 22.4185H14.9521V24.456H15.4072V22.4185Z" fill="#333333"/>
<path d="M15.4072 19.4282H14.9521V21.5108H15.4072V19.4282Z" fill="#333333"/>
<path d="M14.9521 19.4282H14.4971V21.5108H14.9521V19.4282Z" fill="#333333"/>
<path d="M14.9521 22.4185H14.4971V24.456H14.9521V22.4185Z" fill="#333333"/>
<path d="M14.9528 18.7148C14.7724 18.7148 14.6187 18.8194 14.5449 18.9711H15.3607C15.2869 18.8194 15.1332 18.7148 14.9528 18.7148Z" fill="#333333"/>
<path d="M14.9529 25.317C15.1866 25.317 15.3772 25.1387 15.4018 24.9111H14.502C14.5266 25.1387 14.7172 25.317 14.9509 25.317H14.9529Z" fill="#333333"/>
<path d="M15.4072 24.4561H14.9521H14.4971V24.8619C14.4971 24.8783 14.5012 24.8947 14.5012 24.9111H15.401C15.401 24.8947 15.4051 24.8783 15.4051 24.8619V24.4561H15.4072Z" fill="#333333"/>
<path d="M14.4971 19.4282H14.9521H15.4072V19.172C15.4072 19.1002 15.3887 19.0346 15.36 18.9731H14.5442C14.5155 19.0326 14.4971 19.1002 14.4971 19.172V19.4282Z" fill="#333333"/>
<path d="M14.9521 21.5088H14.4971V21.9638H14.9521V21.5088Z" fill="#333333"/>
<path d="M14.9521 21.9634H14.4971V22.4184H14.9521V21.9634Z" fill="#333333"/>
<path d="M15.4072 21.5088H14.9521V21.9638H15.4072V21.5088Z" fill="#333333"/>
<path d="M15.4072 21.9634H14.9521V22.4184H15.4072V21.9634Z" fill="#333333"/>
<path d="M18.6748 19.4282H18.2197V21.5108H18.6748V19.4282Z" fill="#333333"/>
<path d="M18.2197 22.4185H17.7646V24.456H18.2197V22.4185Z" fill="#333333"/>
<path d="M18.2197 19.4282H17.7646V21.5108H18.2197V19.4282Z" fill="#333333"/>
<path d="M18.6748 22.4185H18.2197V24.456H18.6748V22.4185Z" fill="#333333"/>
<path d="M18.2195 25.317C18.4532 25.317 18.6438 25.1387 18.6684 24.9111H17.7686C17.7932 25.1387 17.9838 25.317 18.2175 25.317H18.2195Z" fill="#333333"/>
<path d="M18.2204 18.7148C18.04 18.7148 17.8863 18.8194 17.8125 18.9711H18.6283C18.5545 18.8194 18.4008 18.7148 18.2204 18.7148Z" fill="#333333"/>
<path d="M18.6748 24.4561H18.2197H17.7646V24.8619C17.7646 24.8783 17.7687 24.8947 17.7687 24.9111H18.6686C18.6686 24.8947 18.6727 24.8783 18.6727 24.8619V24.4561H18.6748Z" fill="#333333"/>
<path d="M17.7646 19.4282H18.2197H18.6748V19.172C18.6748 19.1002 18.6563 19.0346 18.6276 18.9731H17.8118C17.7831 19.0326 17.7646 19.1002 17.7646 19.172V19.4282Z" fill="#333333"/>
<path d="M18.6748 21.9634H18.2197V22.4184H18.6748V21.9634Z" fill="#333333"/>
<path d="M18.2197 21.9634H17.7646V22.4184H18.2197V21.9634Z" fill="#333333"/>
<path d="M18.6748 21.5088H18.2197V21.9638H18.6748V21.5088Z" fill="#333333"/>
<path d="M18.2197 21.5088H17.7646V21.9638H18.2197V21.5088Z" fill="#333333"/>
<path d="M21.4844 22.4185H21.0293V24.456H21.4844V22.4185Z" fill="#333333"/>
<path d="M21.9394 22.4185H21.4844V24.456H21.9394V22.4185Z" fill="#333333"/>
<path d="M21.9394 19.4282H21.4844V21.5108H21.9394V19.4282Z" fill="#333333"/>
<path d="M21.4844 19.4282H21.0293V21.5108H21.4844V19.4282Z" fill="#333333"/>
<path d="M21.4851 25.317C21.7188 25.317 21.9094 25.1387 21.934 24.9111H21.0342C21.0588 25.1387 21.2494 25.317 21.4831 25.317H21.4851Z" fill="#333333"/>
<path d="M21.4851 18.7148C21.3047 18.7148 21.1509 18.8194 21.0771 18.9711H21.893C21.8192 18.8194 21.6654 18.7148 21.4851 18.7148Z" fill="#333333"/>
<path d="M21.9394 24.4561H21.4844H21.0293V24.8619C21.0293 24.8783 21.0334 24.8947 21.0334 24.9111H21.9333C21.9333 24.8947 21.9374 24.8783 21.9374 24.8619V24.4561H21.9394Z" fill="#333333"/>
<path d="M21.0293 19.4282H21.4844H21.9394V19.172C21.9394 19.1002 21.921 19.0346 21.8923 18.9731H21.0764C21.0477 19.0326 21.0293 19.1002 21.0293 19.172V19.4282Z" fill="#333333"/>
<path d="M21.4844 21.9634H21.0293V22.4184H21.4844V21.9634Z" fill="#333333"/>
<path d="M21.9394 21.5088H21.4844V21.9638H21.9394V21.5088Z" fill="#333333"/>
<path d="M21.9394 21.9634H21.4844V22.4184H21.9394V21.9634Z" fill="#333333"/>
<path d="M21.4844 21.5088H21.0293V21.9638H21.4844V21.5088Z" fill="#333333"/>
<path d="M24.7519 19.4282H24.2969V21.5108H24.7519V19.4282Z" fill="#333333"/>
<path d="M24.752 22.4186V24.4561H24.9221C25.0184 24.4561 25.1127 24.4499 25.207 24.4376V22.4165H24.752V22.4186Z" fill="#333333"/>
<path d="M24.7519 22.4185H24.2969V24.456H24.7519V22.4185Z" fill="#333333"/>
<path d="M25.207 21.5088V19.4446C25.1127 19.4344 25.0184 19.4282 24.9221 19.4282H24.752V21.5108H25.207V21.5088Z" fill="#333333"/>
<path d="M25.1657 18.9853C25.094 18.8275 24.9361 18.7168 24.7517 18.7168C24.5672 18.7168 24.4175 18.8213 24.3438 18.973H24.9218C25.0038 18.973 25.0858 18.9792 25.1657 18.9853Z" fill="#333333"/>
<path d="M24.3009 24.9113C24.3255 25.1389 24.5161 25.3172 24.7498 25.3172C24.9835 25.3172 25.1823 25.1327 25.2007 24.897C25.1085 24.9052 25.0142 24.9113 24.9199 24.9113H24.2988H24.3009Z" fill="#333333"/>
<path d="M25.207 24.4399C25.1127 24.4502 25.0184 24.4584 24.9221 24.4584H24.7519H24.2969V24.8643C24.2969 24.8806 24.301 24.897 24.301 24.9134H24.9221C25.0164 24.9134 25.1106 24.9073 25.2029 24.8991C25.2029 24.8868 25.207 24.8765 25.207 24.8643V24.442V24.4399Z" fill="#333333"/>
<path d="M24.2969 19.4278H24.7519H24.9221C25.0184 19.4278 25.1127 19.434 25.207 19.4442V19.1695C25.207 19.1039 25.1926 19.0404 25.166 18.983C25.086 18.9769 25.0041 18.9707 24.9221 18.9707H24.344C24.3153 19.0301 24.2969 19.0978 24.2969 19.1695V19.4258V19.4278Z" fill="#333333"/>
<path d="M25.207 21.9634H24.752V22.4184H25.207V21.9634Z" fill="#333333"/>
<path d="M24.7519 21.9634H24.2969V22.4184H24.7519V21.9634Z" fill="#333333"/>
<path d="M25.207 21.5088H24.752V21.9638H25.207V21.5088Z" fill="#333333"/>
<path d="M24.7519 21.5088H24.2969V21.9638H24.7519V21.5088Z" fill="#333333"/>
</svg>
