<svg width="35" height="34" viewBox="0 0 35 34" fill="none" xmlns="http://www.w3.org/2000/svg">
<path d="M26.0012 0H9.8426C4.91582 0 0.921875 3.99394 0.921875 8.92072V25.0793C0.921875 30.0061 4.91582 34 9.8426 34H26.0012C30.9279 34 34.9219 30.0061 34.9219 25.0793V8.92072C34.9219 3.99394 30.9279 0 26.0012 0Z" fill="#939598"/>
<path d="M12.9212 22.7402C12.642 22.7929 12.3628 22.6716 12.4039 22.5217C12.7529 21.2649 15.0952 20.293 17.9343 20.293C20.7734 20.293 23.1158 21.2638 23.4647 22.5207C23.5058 22.6716 23.2246 22.7919 22.9474 22.7391L20.2725 22.2315C18.7821 21.9487 17.144 21.9466 15.6515 22.2273L12.9233 22.7402H12.9212Z" fill="#333333"/>
<path d="M13.4727 12.155C13.6469 12.1735 13.8191 12.196 13.9892 12.2247C15.4856 12.4687 15.7971 13.9117 14.1368 14.1618C13.2513 14.295 12.3248 14.0552 11.4659 13.8994C10.2524 13.6801 9.05535 13.5325 7.88491 13.9753C7.57949 14.09 7.32532 13.9466 7.28022 13.6862C7.22488 13.3726 7.65738 13.1184 7.93616 12.9893C9.52065 12.2534 11.6319 11.9562 13.4747 12.153L13.4727 12.155Z" fill="#333333"/>
<path d="M22.334 12.155C22.1597 12.1735 21.9876 12.196 21.8174 12.2247C20.3211 12.4687 20.0095 13.9117 21.6698 14.1618C22.5554 14.295 23.4819 14.0552 24.3407 13.8994C25.5542 13.6801 26.7513 13.5325 27.9217 13.9753C28.2272 14.09 28.4813 13.9466 28.5264 13.6862C28.5818 13.3726 28.1493 13.1184 27.8705 12.9893C26.286 12.2534 24.1747 11.9562 22.3319 12.153L22.334 12.155Z" fill="#333333"/>
<path d="M10.1455 14.2974C10.1455 13.7583 10.5821 13.3237 11.1192 13.3237C11.6562 13.3237 12.0928 13.7603 12.0928 14.2974C12.0928 14.8344 11.6562 15.271 11.1192 15.271C10.5821 15.271 10.1455 14.8344 10.1455 14.2974Z" fill="#333333"/>
<path d="M23.2637 14.2974C23.2637 13.7583 23.7003 13.3237 24.2373 13.3237C24.7744 13.3237 25.211 13.7603 25.211 14.2974C25.211 14.8344 24.7744 15.271 24.2373 15.271C23.7003 15.271 23.2637 14.8344 23.2637 14.2974Z" fill="#333333"/>
</svg>
