<svg width="29" height="24" viewBox="0 0 29 24" fill="none" xmlns="http://www.w3.org/2000/svg">
<path fill-rule="evenodd" clip-rule="evenodd" d="M3.23415 3.27513C4.47183 2.07532 6.15026 1.4013 7.90035 1.4013C9.65043 1.4013 11.3289 2.07532 12.5665 3.27513L14.5003 5.14873L16.4341 3.27513C17.043 2.66387 17.7712 2.1763 18.5765 1.84088C19.3817 1.50547 20.2478 1.32892 21.1241 1.32153C22.0004 1.31415 22.8695 1.47608 23.6806 1.79787C24.4918 2.11967 25.2287 2.59489 25.8484 3.19581C26.468 3.79672 26.9581 4.51129 27.29 5.29783C27.6218 6.08436 27.7888 6.92711 27.7812 7.7769C27.7736 8.62669 27.5915 9.4665 27.2456 10.2473C26.8997 11.0281 26.3969 11.7344 25.7665 12.3247L14.5003 23.2511L3.23415 12.3247C1.99684 11.1246 1.30176 9.49698 1.30176 7.79993C1.30176 6.10288 1.99684 4.47531 3.23415 3.27513Z" fill="#A79BF2" stroke="#A79BF2" stroke-linejoin="round"/>
</svg>
