<svg width="34" height="34" viewBox="0 0 34 34" fill="none" xmlns="http://www.w3.org/2000/svg">
<path d="M24.9768 0H9.02322C4.03983 0 0 4.03982 0 9.0232V24.9768C0 29.9602 4.03983 34 9.02322 34H24.9768C29.9602 34 34 29.9602 34 24.9768V9.0232C34 4.03982 29.9602 0 24.9768 0Z" fill="#98D6E0"/>
<path d="M12.8109 12.2742C12.9626 12.2414 13.1492 12.223 13.2475 12.3439C13.2967 12.4034 13.309 12.4833 13.3131 12.5612C13.3418 13.1167 12.9831 13.6291 12.5342 13.9571C11.7266 14.5454 10.6709 14.6479 9.67064 14.6827C8.5453 14.7217 7.35027 14.6827 6.40121 14.0821C6.01175 13.8362 5.66328 13.4652 5.60589 13.008C5.5321 12.4218 6.03225 11.9463 6.598 12.1082C7.1289 12.2599 7.5614 12.6063 8.11894 12.7354C9.69524 13.0982 11.2756 12.5981 12.813 12.2763L12.8109 12.2742Z" fill="#333333"/>
<path d="M21.1884 12.2742C21.0367 12.2414 20.8502 12.223 20.7518 12.3439C20.7026 12.4034 20.6903 12.4833 20.6862 12.5612C20.6575 13.1167 21.0162 13.6291 21.4651 13.9571C22.2727 14.5454 23.3284 14.6479 24.3287 14.6827C25.454 14.7217 26.649 14.6827 27.5981 14.0821C27.9876 13.8362 28.336 13.4652 28.3934 13.008C28.4672 12.4218 27.9691 11.9463 27.4013 12.1082C26.8704 12.2599 26.4379 12.6063 25.8804 12.7354C24.3041 13.0982 22.7237 12.5981 21.1863 12.2763L21.1884 12.2742Z" fill="#333333"/>
<path d="M12.3951 19.9917C16.5234 20.4037 20.627 20.4529 24.7738 19.758C25.8438 19.5776 26.6658 20.4098 25.8909 21.3814C25.5056 21.8673 24.8599 22.2485 24.3085 22.5232C22.6256 23.3636 20.7234 23.5153 18.8704 23.5255C16.8903 23.5358 14.8938 23.5788 12.9341 23.2509C11.5054 23.0131 8.04744 22.2055 7.93675 20.3053C7.88346 19.3808 9.61348 19.6637 10.1177 19.7293C10.8782 19.8277 11.6346 19.9158 12.393 19.9896L12.3951 19.9917Z" fill="#333333"/>
</svg>
