<svg width="34" height="34" viewBox="0 0 34 34" fill="none" xmlns="http://www.w3.org/2000/svg">
<path d="M24.9768 0H9.0232C4.03982 0 0 4.03982 0 9.02321V24.9768C0 29.9602 4.03982 34 9.0232 34H24.9768C29.9602 34 34 29.9602 34 24.9768V9.02321C34 4.03982 29.9602 0 24.9768 0Z" fill="#98D6E0"/>
<path d="M12.1907 13.4104C12.4331 12.3836 11.7971 11.3546 10.7702 11.1123C9.74334 10.8699 8.71441 11.5059 8.47204 12.5328C8.22968 13.5596 8.86565 14.5886 9.89253 14.8309C10.9194 15.0733 11.9483 14.4373 12.1907 13.4104Z" fill="#333333"/>
<path d="M21.7383 12.0015C21.5087 12.0856 21.2915 12.1881 21.0967 12.3316C20.1005 13.0777 21.1828 13.9714 21.8797 14.4101C22.6361 14.8856 23.866 15.7342 24.8089 15.5497C24.9565 15.521 25.1123 15.4575 25.1881 15.3263C25.5448 14.7052 24.5486 14.4121 24.1468 14.2379C23.8476 14.1087 23.2613 13.8177 23.2961 13.4159C23.3064 13.297 23.3802 13.1925 23.4642 13.1084C24.0546 12.5324 25.3234 12.7005 25.5571 11.7412C25.5878 11.6121 25.5694 11.4666 25.4812 11.3661C25.3952 11.2677 25.2619 11.2288 25.1348 11.2083C24.3457 11.075 23.5708 11.3456 22.8472 11.6367C22.4947 11.7781 22.1032 11.8663 21.7363 11.9995L21.7383 12.0015Z" fill="#333333"/>
<path d="M15.7587 25.0998C16.263 25.2105 16.7939 25.1654 17.2489 24.8394C17.5851 24.5996 17.8577 24.2204 18.0934 23.8084C18.3394 23.38 18.4644 23.0192 18.899 23.0971C19.3254 23.175 19.7046 23.503 20.1166 23.6567C20.8689 23.9375 21.6314 23.3164 22.0024 22.3776C22.2033 21.8693 22.3611 21.2544 22.3837 20.6681C22.3919 20.457 22.1807 19.0078 21.8651 19.3993C21.8323 19.4403 21.822 19.5079 21.8138 19.5715C21.7544 20.1495 21.8364 20.7152 21.6642 21.2666C21.5268 21.7073 21.3014 22.0845 21.0267 22.3592C20.4671 22.9147 19.7066 23.0008 19.1696 22.3428C19.022 22.1624 18.8826 21.9595 18.7145 21.8201C18.2964 21.4716 17.9192 21.7709 17.6978 22.3223C17.4969 22.8245 17.4395 23.3205 17.1157 23.71C16.8431 24.038 16.4925 24.2061 16.1379 24.2102C15.3733 24.2204 14.7523 23.5214 14.1701 22.8942C14.0861 22.804 13.9979 22.7117 13.8954 22.6748C13.793 22.6379 13.672 22.6708 13.6085 22.7917C13.5121 22.9782 13.5982 23.2447 13.6966 23.4292C14.1783 24.3393 14.9347 24.903 15.7177 25.0875C15.73 25.0895 15.7423 25.0936 15.7546 25.0957L15.7587 25.0998Z" fill="#333333"/>
</svg>
