<svg width="34" height="34" viewBox="0 0 34 34" fill="none" xmlns="http://www.w3.org/2000/svg">
<path d="M24.9768 0H9.0232C4.03982 0 0 4.03982 0 9.0232V24.9768C0 29.9602 4.03982 34 9.0232 34H24.9768C29.9602 34 34 29.9602 34 24.9768V9.0232C34 4.03982 29.9602 0 24.9768 0Z" fill="#F8D45A"/>
<path d="M23.8575 18.022C25.3395 18.022 26.3439 19.5245 25.7864 20.8978C24.4663 24.1365 20.9817 26.4507 16.8882 26.4507C12.7948 26.4507 9.31011 24.1365 7.99004 20.8978C7.43045 19.5245 8.43486 18.022 9.91891 18.022H23.8596H23.8575Z" fill="#333333"/>
<path d="M5.47087 12.6574C5.45857 12.6287 5.45037 12.6 5.44422 12.5692C5.1183 10.7387 8.61116 10.2714 9.7324 10.6239C10.3084 10.8043 10.8885 11.12 11.3476 11.5115C11.526 11.6632 12.6657 13.0899 11.8457 13.1083C11.7248 13.1103 11.6141 13.0427 11.5157 12.971C10.7655 12.4421 10.3678 11.657 9.42287 11.4316C8.38568 11.1835 7.25008 11.5197 6.52446 12.3048C6.29488 12.5528 5.7189 13.2579 5.47087 12.6553V12.6574Z" fill="#333333"/>
<path d="M28.5267 12.6574C28.539 12.6287 28.5472 12.6 28.5534 12.5692C28.8793 10.7387 25.3864 10.2714 24.2652 10.6239C23.6892 10.8043 23.1091 11.12 22.65 11.5115C22.4716 11.6632 21.3319 13.0899 22.1519 13.1083C22.2728 13.1103 22.3835 13.0427 22.4819 12.971C23.2321 12.4421 23.6298 11.657 24.5747 11.4316C25.6119 11.1835 26.7475 11.5197 27.4731 12.3048C27.7027 12.5528 28.2787 13.2579 28.5267 12.6553V12.6574Z" fill="#333333"/>
</svg>
