<svg width="34" height="34" viewBox="0 0 34 34" fill="none" xmlns="http://www.w3.org/2000/svg">
<path d="M24.9768 0H9.0232C4.03982 0 0 4.03983 0 9.02322V24.9768C0 29.9602 4.03982 34 9.0232 34H24.9768C29.9602 34 34 29.9602 34 24.9768V9.02322C34 4.03983 29.9602 0 24.9768 0Z" fill="#FFC669"/>
<path d="M23.6952 20.7563H21.3379V22.7938H23.6952V20.7563Z" fill="white"/>
<path d="M17.1629 20.7563H14.8057V22.7938H17.1629V20.7563Z" fill="white"/>
<path d="M13.8954 17.7637H11.5381V19.8463H13.8954V17.7637Z" fill="white"/>
<path d="M13.8954 20.7563H11.5381V22.7938H13.8954V20.7563Z" fill="white"/>
<path d="M10.6285 17.7637H10.3189C9.08496 17.7637 8.06006 18.6656 7.86328 19.8463H10.6285V17.7637Z" fill="white"/>
<path d="M20.4276 20.7563H18.0703V22.7938H20.4276V20.7563Z" fill="white"/>
<path d="M26.7744 19.8464C26.594 18.7579 25.7085 17.9073 24.6016 17.7822V19.8464H26.7744Z" fill="white"/>
<path d="M23.6952 17.7637H21.3379V19.8463H23.6952V17.7637Z" fill="white"/>
<path d="M20.4276 17.7637H18.0703V19.8463H20.4276V17.7637Z" fill="white"/>
<path d="M24.6035 22.7755C25.694 22.6505 26.5713 21.8223 26.7681 20.7544H24.6035V22.7755Z" fill="white"/>
<path d="M17.1629 17.7637H14.8057V19.8463H17.1629V17.7637Z" fill="white"/>
<path d="M7.86914 20.7563C8.08437 21.9145 9.09901 22.7938 10.3186 22.7938H10.6282V20.7563H7.86914Z" fill="white"/>
<path d="M24.3188 16.8536H10.3187C8.44311 16.8536 6.91602 18.3787 6.91602 20.2563V20.3014C6.91602 20.0493 7.11894 19.8463 7.37106 19.8463H7.40387C7.60475 18.4135 8.83052 17.3087 10.3187 17.3087H10.6753C10.7491 17.157 10.9029 17.0524 11.0833 17.0524C11.2636 17.0524 11.4174 17.157 11.4912 17.3087H13.9427C14.0165 17.157 14.1703 17.0524 14.3506 17.0524C14.531 17.0524 14.6848 17.157 14.7585 17.3087H17.2101C17.2839 17.157 17.4376 17.0524 17.618 17.0524C17.7984 17.0524 17.9521 17.157 18.0259 17.3087H20.4775C20.5513 17.157 20.705 17.0524 20.8854 17.0524C21.0658 17.0524 21.2195 17.157 21.2933 17.3087H23.7449C23.8186 17.157 23.9724 17.0524 24.1528 17.0524C24.3331 17.0524 24.4951 17.1631 24.5668 17.321C25.9504 17.4337 27.0594 18.5017 27.2418 19.8627C27.4345 19.916 27.578 20.0902 27.578 20.2993C27.578 20.5084 27.4324 20.6888 27.2357 20.738C27.0368 22.0663 25.9545 23.1034 24.6058 23.2326C24.5873 23.4663 24.3946 23.6528 24.1548 23.6528C23.915 23.6528 23.7305 23.4745 23.7059 23.2469H21.3384C21.3138 23.4745 21.1232 23.6528 20.8895 23.6528C20.6558 23.6528 20.4652 23.4745 20.4406 23.2469H18.0731C18.0485 23.4745 17.8578 23.6528 17.6242 23.6528C17.3905 23.6528 17.1999 23.4745 17.1753 23.2469H14.8077C14.7831 23.4745 14.5925 23.6528 14.3588 23.6528C14.1252 23.6528 13.9345 23.4745 13.9099 23.2469H11.5424C11.5178 23.4745 11.3272 23.6528 11.0935 23.6528C10.8598 23.6528 10.6692 23.4745 10.6446 23.2469H10.3289C8.85718 23.2469 7.6396 22.1667 7.42027 20.7544H7.38132C7.1292 20.7544 6.92626 20.5514 6.92626 20.2993C6.92626 22.1749 8.45132 23.702 10.3289 23.702H24.3291C26.2046 23.702 27.7317 22.1769 27.7317 20.2993V20.2542C27.7317 18.3787 26.2067 16.8516 24.3291 16.8516L24.3188 16.8536Z" fill="#333333"/>
<path d="M20.4278 22.7935H18.0705V23.1993C18.0705 23.2157 18.0664 23.2321 18.0664 23.2485H20.4339C20.4339 23.2321 20.4298 23.2157 20.4298 23.1993V22.7935H20.4278Z" fill="#333333"/>
<path d="M10.6283 22.7938H10.3188C9.09919 22.7938 8.08455 21.9145 7.86932 20.7563H7.41016C7.62948 22.1666 8.84502 23.2489 10.3188 23.2489H10.6345C10.6345 23.2325 10.6304 23.2161 10.6304 23.1997V22.7938H10.6283Z" fill="#333333"/>
<path d="M13.8956 22.7935H11.5383V23.1993C11.5383 23.2157 11.5342 23.2321 11.5342 23.2485H13.9017C13.9017 23.2321 13.8976 23.2157 13.8976 23.1993V22.7935H13.8956Z" fill="#333333"/>
<path d="M17.1602 22.7935H14.8029V23.1993C14.8029 23.2157 14.7988 23.2321 14.7988 23.2485H17.1663C17.1663 23.2321 17.1622 23.2157 17.1622 23.1993V22.7935H17.1602Z" fill="#333333"/>
<path d="M21.3382 17.7637H23.6954V17.5074C23.6954 17.4357 23.7139 17.3701 23.7426 17.3086H21.291C21.3197 17.368 21.3382 17.4357 21.3382 17.5074V17.7637Z" fill="#333333"/>
<path d="M10.3191 17.7637H10.6286V17.5074C10.6286 17.4357 10.6471 17.3701 10.6758 17.3086H10.3191C8.83095 17.3086 7.60313 18.4134 7.4043 19.8462H7.86345C8.06023 18.6676 9.08513 17.7637 10.3191 17.7637Z" fill="#333333"/>
<path d="M18.0706 17.7637H20.4278V17.5074C20.4278 17.4357 20.4463 17.3701 20.475 17.3086H18.0234C18.0521 17.368 18.0706 17.4357 18.0706 17.5074V17.7637Z" fill="#333333"/>
<path d="M14.8059 17.7637H17.1632V17.5074C17.1632 17.4357 17.1816 17.3701 17.2103 17.3086H14.7588C14.7875 17.368 14.8059 17.4357 14.8059 17.5074V17.7637Z" fill="#333333"/>
<path d="M11.5384 17.7637H13.8956V17.5074C13.8956 17.4357 13.9141 17.3701 13.9428 17.3086H11.4912C11.5199 17.368 11.5384 17.4357 11.5384 17.5074V17.7637Z" fill="#333333"/>
<path d="M23.6934 22.7935H21.3361V23.1993C21.3361 23.2157 21.332 23.2321 21.332 23.2485H23.6995C23.6995 23.2321 23.6954 23.2157 23.6954 23.1993V22.7935H23.6934Z" fill="#333333"/>
<path d="M24.6035 17.78C25.7083 17.905 26.5939 18.7577 26.7763 19.8441H27.1186C27.1596 19.8441 27.2006 19.8523 27.2375 19.8626C27.0551 18.4994 25.9461 17.4335 24.5625 17.3208C24.5871 17.3782 24.6035 17.4397 24.6035 17.5073V17.782V17.78Z" fill="#333333"/>
<path d="M26.7683 20.7561C26.5715 21.822 25.6942 22.6522 24.6037 22.7772V23.1995C24.6037 23.2118 24.6017 23.222 24.5996 23.2343C25.9504 23.1073 27.0307 22.068 27.2295 20.7397C27.1926 20.75 27.1557 20.7561 27.1168 20.7561H26.7662H26.7683Z" fill="#333333"/>
<path d="M17.1629 20.3013H14.8057V20.7563H17.1629V20.3013Z" fill="#333333"/>
<path d="M13.8954 20.3013H11.5381V20.7563H13.8954V20.3013Z" fill="#333333"/>
<path d="M24.6036 20.3013H26.8113V20.2562C26.8113 20.1168 26.7969 19.9794 26.7744 19.8462H24.6016V20.3013H24.6036Z" fill="#333333"/>
<path d="M20.4276 20.3013H18.0703V20.7563H20.4276V20.3013Z" fill="#333333"/>
<path d="M23.6952 19.8462H21.3379V20.3013H23.6952V19.8462Z" fill="#333333"/>
<path d="M24.6035 20.7563H26.7681C26.7947 20.6087 26.8112 20.4571 26.8112 20.3013H24.6035V20.7563Z" fill="#333333"/>
<path d="M20.4276 19.8462H18.0703V20.3013H20.4276V19.8462Z" fill="#333333"/>
<path d="M17.1629 19.8462H14.8057V20.3013H17.1629V19.8462Z" fill="#333333"/>
<path d="M23.6952 20.3013H21.3379V20.7563H23.6952V20.3013Z" fill="#333333"/>
<path d="M7.86922 20.7563H10.6282V20.3013H7.82617C7.82617 20.4571 7.84257 20.6087 7.86922 20.7563Z" fill="#333333"/>
<path d="M13.8954 19.8462H11.5381V20.3013H13.8954V19.8462Z" fill="#333333"/>
<path d="M10.6282 19.8462H7.86307C7.84052 19.9794 7.82617 20.1168 7.82617 20.2562V20.3013H10.6282V19.8462Z" fill="#333333"/>
<path d="M7.37106 20.7563H7.41001C7.38746 20.6067 7.37106 20.457 7.37106 20.3013V20.2562C7.37106 20.1168 7.38337 19.9815 7.40387 19.8462H7.37106C7.11894 19.8462 6.91602 20.0491 6.91602 20.3013C6.91602 20.5534 7.11894 20.7563 7.37106 20.7563Z" fill="#333333"/>
<path d="M27.2664 20.3014C27.2664 20.451 27.252 20.5965 27.2295 20.74C27.4263 20.6908 27.5718 20.5125 27.5718 20.3014C27.5718 20.0902 27.4304 19.918 27.2356 19.8647C27.252 19.9939 27.2643 20.123 27.2643 20.2563V20.3014H27.2664Z" fill="#333333"/>
<path d="M7.82616 20.3013H7.37109C7.37109 20.4571 7.38749 20.6067 7.41004 20.7563H7.86921C7.84256 20.6087 7.82616 20.4571 7.82616 20.3013Z" fill="#333333"/>
<path d="M7.37109 20.3013H7.82616V20.2562C7.82616 20.1168 7.8405 19.9794 7.86305 19.8462H7.4039C7.38545 19.9815 7.37109 20.1168 7.37109 20.2562V20.3013Z" fill="#333333"/>
<path d="M26.7737 19.8462C26.7963 19.9794 26.8106 20.1168 26.8106 20.2562V20.3013C26.8106 20.457 26.7942 20.6087 26.7676 20.7563H27.1181C27.157 20.7563 27.1939 20.7502 27.2308 20.7399C27.2513 20.5964 27.2677 20.4509 27.2677 20.3013V20.2562C27.2677 20.1229 27.2554 19.9917 27.239 19.8646C27.2001 19.8544 27.1611 19.8462 27.1201 19.8462H26.7778H26.7737Z" fill="#333333"/>
<path d="M11.5381 20.7563H11.083V22.7938H11.5381V20.7563Z" fill="#333333"/>
<path d="M11.083 20.7563H10.6279V22.7938H11.083V20.7563Z" fill="#333333"/>
<path d="M11.083 17.7637H10.6279V19.8463H11.083V17.7637Z" fill="#333333"/>
<path d="M11.5381 17.7637H11.083V19.8463H11.5381V17.7637Z" fill="#333333"/>
<path d="M11.0837 17.0522C10.9033 17.0522 10.7496 17.1568 10.6758 17.3085H11.4916C11.4178 17.1568 11.2641 17.0522 11.0837 17.0522Z" fill="#333333"/>
<path d="M11.0838 23.6524C11.3174 23.6524 11.5081 23.4741 11.5327 23.2466H10.6328C10.6574 23.4741 10.848 23.6524 11.0817 23.6524H11.0838Z" fill="#333333"/>
<path d="M11.538 22.7935H11.083H10.6279V23.1993C10.6279 23.2157 10.632 23.2321 10.632 23.2485H11.5319C11.5319 23.2321 11.536 23.2157 11.536 23.1993V22.7935H11.538Z" fill="#333333"/>
<path d="M10.6279 17.7637H11.083H11.538V17.5074C11.538 17.4357 11.5196 17.3701 11.4909 17.3086H10.6751C10.6464 17.368 10.6279 17.4357 10.6279 17.5074V17.7637Z" fill="#333333"/>
<path d="M11.5381 19.8462H11.083V20.3013H11.5381V19.8462Z" fill="#333333"/>
<path d="M11.083 20.3013H10.6279V20.7563H11.083V20.3013Z" fill="#333333"/>
<path d="M11.5381 20.3013H11.083V20.7563H11.5381V20.3013Z" fill="#333333"/>
<path d="M11.083 19.8462H10.6279V20.3013H11.083V19.8462Z" fill="#333333"/>
<path d="M14.3506 17.7637H13.8955V19.8463H14.3506V17.7637Z" fill="#333333"/>
<path d="M14.8056 17.7637H14.3506V19.8463H14.8056V17.7637Z" fill="#333333"/>
<path d="M14.3506 20.7563H13.8955V22.7938H14.3506V20.7563Z" fill="#333333"/>
<path d="M14.8056 20.7563H14.3506V22.7938H14.8056V20.7563Z" fill="#333333"/>
<path d="M14.3504 23.6524C14.584 23.6524 14.7747 23.4741 14.7993 23.2466H13.8994C13.924 23.4741 14.1146 23.6524 14.3483 23.6524H14.3504Z" fill="#333333"/>
<path d="M14.3513 17.0522C14.1709 17.0522 14.0172 17.1568 13.9434 17.3085H14.7592C14.6854 17.1568 14.5317 17.0522 14.3513 17.0522Z" fill="#333333"/>
<path d="M14.8056 22.7935H14.3506H13.8955V23.1993C13.8955 23.2157 13.8996 23.2321 13.8996 23.2485H14.7995C14.7995 23.2321 14.8036 23.2157 14.8036 23.1993V22.7935H14.8056Z" fill="#333333"/>
<path d="M13.8955 17.7637H14.3506H14.8056V17.5074C14.8056 17.4357 14.7872 17.3701 14.7585 17.3086H13.9426C13.914 17.368 13.8955 17.4357 13.8955 17.5074V17.7637Z" fill="#333333"/>
<path d="M14.3506 19.8462H13.8955V20.3013H14.3506V19.8462Z" fill="#333333"/>
<path d="M14.8056 20.3013H14.3506V20.7563H14.8056V20.3013Z" fill="#333333"/>
<path d="M14.3506 20.3013H13.8955V20.7563H14.3506V20.3013Z" fill="#333333"/>
<path d="M14.8056 19.8462H14.3506V20.3013H14.8056V19.8462Z" fill="#333333"/>
<path d="M17.6152 17.7637H17.1602V19.8463H17.6152V17.7637Z" fill="#333333"/>
<path d="M17.6152 20.7563H17.1602V22.7938H17.6152V20.7563Z" fill="#333333"/>
<path d="M18.0703 20.7563H17.6152V22.7938H18.0703V20.7563Z" fill="#333333"/>
<path d="M18.0703 17.7637H17.6152V19.8463H18.0703V17.7637Z" fill="#333333"/>
<path d="M17.616 23.6524C17.8497 23.6524 18.0403 23.4741 18.0649 23.2466H17.165C17.1896 23.4741 17.3803 23.6524 17.6139 23.6524H17.616Z" fill="#333333"/>
<path d="M17.6159 17.0522C17.4355 17.0522 17.2818 17.1568 17.208 17.3085H18.0238C17.95 17.1568 17.7963 17.0522 17.6159 17.0522Z" fill="#333333"/>
<path d="M17.1602 17.7637H17.6152H18.0703V17.5074C18.0703 17.4357 18.0518 17.3701 18.0231 17.3086H17.2073C17.1786 17.368 17.1602 17.4357 17.1602 17.5074V17.7637Z" fill="#333333"/>
<path d="M18.0703 22.7935H17.6152H17.1602V23.1993C17.1602 23.2157 17.1643 23.2321 17.1643 23.2485H18.0641C18.0641 23.2321 18.0682 23.2157 18.0682 23.1993V22.7935H18.0703Z" fill="#333333"/>
<path d="M17.6152 19.8462H17.1602V20.3013H17.6152V19.8462Z" fill="#333333"/>
<path d="M18.0703 19.8462H17.6152V20.3013H18.0703V19.8462Z" fill="#333333"/>
<path d="M17.6152 20.3013H17.1602V20.7563H17.6152V20.3013Z" fill="#333333"/>
<path d="M18.0703 20.3013H17.6152V20.7563H18.0703V20.3013Z" fill="#333333"/>
<path d="M20.8828 20.7563H20.4277V22.7938H20.8828V20.7563Z" fill="#333333"/>
<path d="M21.3379 17.7637H20.8828V19.8463H21.3379V17.7637Z" fill="#333333"/>
<path d="M20.8828 17.7637H20.4277V19.8463H20.8828V17.7637Z" fill="#333333"/>
<path d="M21.3379 20.7563H20.8828V22.7938H21.3379V20.7563Z" fill="#333333"/>
<path d="M20.8826 23.6524C21.1163 23.6524 21.3069 23.4741 21.3315 23.2466H20.4316C20.4562 23.4741 20.6469 23.6524 20.8805 23.6524H20.8826Z" fill="#333333"/>
<path d="M20.8835 17.0522C20.7031 17.0522 20.5494 17.1568 20.4756 17.3085H21.2914C21.2176 17.1568 21.0639 17.0522 20.8835 17.0522Z" fill="#333333"/>
<path d="M20.4277 17.7637H20.8828H21.3378V17.5074C21.3378 17.4357 21.3194 17.3701 21.2907 17.3086H20.4749C20.4462 17.368 20.4277 17.4357 20.4277 17.5074V17.7637Z" fill="#333333"/>
<path d="M21.3378 22.7935H20.8828H20.4277V23.1993C20.4277 23.2157 20.4318 23.2321 20.4318 23.2485H21.3317C21.3317 23.2321 21.3358 23.2157 21.3358 23.1993V22.7935H21.3378Z" fill="#333333"/>
<path d="M21.3379 20.3013H20.8828V20.7563H21.3379V20.3013Z" fill="#333333"/>
<path d="M20.8828 19.8462H20.4277V20.3013H20.8828V19.8462Z" fill="#333333"/>
<path d="M21.3379 19.8462H20.8828V20.3013H21.3379V19.8462Z" fill="#333333"/>
<path d="M20.8828 20.3013H20.4277V20.7563H20.8828V20.3013Z" fill="#333333"/>
<path d="M24.6034 19.8462V17.782C24.5111 17.7718 24.4148 17.7656 24.3205 17.7656H24.1504V19.8482H24.6054L24.6034 19.8462Z" fill="#333333"/>
<path d="M24.1484 20.7563H23.6934V22.7938H24.1484V20.7563Z" fill="#333333"/>
<path d="M24.1484 17.7637H23.6934V19.8463H24.1484V17.7637Z" fill="#333333"/>
<path d="M24.1485 20.7563V22.7938H24.3187C24.415 22.7938 24.5093 22.7877 24.6015 22.7774V20.7563H24.1465H24.1485Z" fill="#333333"/>
<path d="M24.5622 17.3208C24.4904 17.1629 24.3326 17.0522 24.1481 17.0522C23.9637 17.0522 23.814 17.1568 23.7402 17.3085H24.3183C24.4003 17.3085 24.4802 17.3146 24.5622 17.3208Z" fill="#333333"/>
<path d="M23.6993 23.2468C23.7239 23.4743 23.9145 23.6526 24.1482 23.6526C24.3819 23.6526 24.5807 23.4681 24.5992 23.2324C24.5069 23.2406 24.4127 23.2468 24.3184 23.2468H23.6973H23.6993Z" fill="#333333"/>
<path d="M23.6935 17.7637H24.1485H24.3187C24.415 17.7637 24.5093 17.7699 24.6015 17.7801V17.5055C24.6015 17.4399 24.5872 17.3763 24.5605 17.3189C24.4806 17.3128 24.3986 17.3066 24.3166 17.3066H23.7386C23.7099 17.3661 23.6914 17.4337 23.6914 17.5055V17.7617L23.6935 17.7637Z" fill="#333333"/>
<path d="M24.6034 22.7754C24.5111 22.7856 24.4148 22.7918 24.3205 22.7918H24.1504H23.6953V23.1976C23.6953 23.214 23.6994 23.2304 23.6994 23.2468H24.3205C24.4148 23.2468 24.5091 23.2407 24.6013 23.2325C24.6013 23.2202 24.6054 23.2099 24.6054 23.1976V22.7754H24.6034Z" fill="#333333"/>
<path d="M24.1484 20.3013H23.6934V20.7563H24.1484V20.3013Z" fill="#333333"/>
<path d="M24.6035 20.3013H24.1484V20.7563H24.6035V20.3013Z" fill="#333333"/>
<path d="M24.1484 19.8462H23.6934V20.3013H24.1484V19.8462Z" fill="#333333"/>
<path d="M24.6035 19.8462H24.1484V20.3013H24.6035V19.8462Z" fill="#333333"/>
<path d="M5.47087 13.4571C5.45857 13.4285 5.45037 13.3998 5.44422 13.369C5.1183 11.5385 8.61116 11.0712 9.7324 11.4238C10.3084 11.6041 10.8885 11.9198 11.3476 12.3113C11.526 12.463 12.6657 13.8897 11.8457 13.9081C11.7248 13.9102 11.6141 13.8425 11.5157 13.7708C10.7655 13.2419 10.3678 12.4569 9.42287 12.2314C8.38568 11.9833 7.25008 12.3195 6.52446 13.1046C6.29488 13.3526 5.7189 14.0577 5.47087 13.4551V13.4571Z" fill="#333333"/>
<path d="M28.5267 13.4571C28.539 13.4285 28.5472 13.3998 28.5534 13.369C28.8793 11.5385 25.3864 11.0712 24.2652 11.4238C23.6892 11.6041 23.1091 11.9198 22.65 12.3113C22.4716 12.463 21.3319 13.8897 22.1519 13.9081C22.2728 13.9102 22.3835 13.8425 22.4819 13.7708C23.2321 13.2419 23.6298 12.4569 24.5747 12.2314C25.6119 11.9833 26.7475 12.3195 27.4731 13.1046C27.7027 13.3526 28.2787 14.0577 28.5267 13.4551V13.4571Z" fill="#333333"/>
</svg>
