<svg width="34" height="34" viewBox="0 0 34 34" fill="none" xmlns="http://www.w3.org/2000/svg">
<path d="M24.9768 0H9.02321C4.03983 0 0 4.03983 0 9.02322V24.9768C0 29.9602 4.03983 34 9.02321 34H24.9768C29.9602 34 34 29.9602 34 24.9768V9.02322C34 4.03983 29.9602 0 24.9768 0Z" fill="#EFCFC5"/>
<path d="M10.1776 21.5886C14.3776 23.0337 19.2603 22.9456 23.4521 21.4984C24.9731 20.9737 26.4264 20.2357 27.7013 19.2518C28.099 18.9443 28.8287 18.3007 29.294 18.8993C29.5605 19.2436 29.3371 19.8155 29.1526 20.1435C28.7078 20.9429 27.9186 21.5066 27.1991 22.0395C26.2542 22.7385 25.2026 23.294 24.1183 23.7429C22.2714 24.5034 20.2872 24.899 18.2989 25.0322C17.5507 25.0835 16.7985 25.0958 16.0482 25.0732C16.0277 25.0732 16.0052 25.0732 15.9826 25.0732C14.9147 25.0384 13.8488 24.9277 12.7973 24.7432C10.7926 24.3927 8.83704 23.704 7.06397 22.7037C6.87129 22.595 6.67861 22.4823 6.48797 22.3655C5.85254 21.978 5.23965 21.5865 4.87478 20.9081C4.74155 20.6621 4.66775 20.369 4.74565 20.1004C4.87888 19.6454 5.37083 19.4773 5.79924 19.5695C6.47363 19.713 7.01887 20.1025 7.60921 20.4325C8.23235 20.781 8.88009 21.0884 9.54422 21.3529C9.75535 21.4369 9.96443 21.5148 10.1776 21.5865V21.5886Z" fill="#333333"/>
<path d="M5.37712 12.5448C5.36482 12.5735 5.35662 12.6022 5.35047 12.6329C5.02455 14.4634 8.51741 14.9308 9.63865 14.5782C10.2146 14.3978 10.7947 14.0822 11.2539 13.6906C11.4322 13.539 12.5719 12.1123 11.752 12.0938C11.631 12.0918 11.5204 12.1594 11.422 12.2312C10.6717 12.76 10.2741 13.5451 9.32913 13.7706C8.29193 14.0186 7.15634 13.6824 6.43071 12.8974C6.20114 12.6493 5.62515 11.9442 5.37712 12.5469V12.5448Z" fill="#333333"/>
<path d="M28.433 12.5448C28.4453 12.5735 28.4535 12.6022 28.4596 12.6329C28.7856 14.4634 25.2927 14.9308 24.1715 14.5782C23.5955 14.3978 23.0154 14.0822 22.5562 13.6906C22.3779 13.539 21.2382 12.1123 22.0581 12.0938C22.1791 12.0918 22.2897 12.1594 22.3881 12.2312C23.1384 12.76 23.536 13.5451 24.481 13.7706C25.5182 14.0186 26.6538 13.6824 27.3794 12.8974C27.609 12.6493 28.185 11.9442 28.433 12.5469V12.5448Z" fill="#333333"/>
</svg>
