<svg width="34" height="34" viewBox="0 0 34 34" fill="none" xmlns="http://www.w3.org/2000/svg">
<path d="M25.0793 0H8.92072C3.99394 0 0 3.99394 0 8.92072V25.0793C0 30.0061 3.99394 34 8.92072 34H25.0793C30.0061 34 34 30.0061 34 25.0793V8.92072C34 3.99394 30.0061 0 25.0793 0Z" fill="#F89B94"/>
<path d="M9.62419 15.9513C10.4382 15.9513 11.098 14.8381 11.098 13.4649C11.098 12.0917 10.4382 10.9785 9.62419 10.9785C8.81023 10.9785 8.15039 12.0917 8.15039 13.4649C8.15039 14.8381 8.81023 15.9513 9.62419 15.9513Z" fill="#333333"/>
<path d="M24.3722 15.9513C25.1862 15.9513 25.846 14.8381 25.846 13.4649C25.846 12.0917 25.1862 10.9785 24.3722 10.9785C23.5583 10.9785 22.8984 12.0917 22.8984 13.4649C22.8984 14.8381 23.5583 15.9513 24.3722 15.9513Z" fill="#333333"/>
<path d="M22.0619 19.104C23.3964 19.104 24.2634 20.5081 23.669 21.7031C22.5477 23.9579 20.0142 25.5301 17.0686 25.5301C14.1231 25.5301 11.5895 23.9579 10.4683 21.7031C9.87384 20.5081 10.7389 19.104 12.0753 19.104H22.064H22.0619Z" fill="#333333"/>
</svg>
