<svg width="34" height="34" viewBox="0 0 34 34" fill="none" xmlns="http://www.w3.org/2000/svg">
<path d="M25.0793 0H8.92071C3.99393 0 0 3.99394 0 8.92072V25.0793C0 30.0061 3.99393 34 8.92071 34H25.0793C30.0061 34 34 30.0061 34 25.0793V8.92072C34 3.99394 30.0061 0 25.0793 0Z" fill="#EFCFC5"/>
<path d="M7.01557 19.559C7.20258 18.4069 6.42023 17.3213 5.26814 17.1343C4.11606 16.9473 3.0305 17.7296 2.84349 18.8817C2.65648 20.0338 3.43883 21.1194 4.59092 21.3064C5.74301 21.4934 6.82856 20.711 7.01557 19.559Z" fill="#F38DB3"/>
<path d="M30.569 20.7082C31.3943 19.8829 31.3943 18.5448 30.569 17.7195C29.7437 16.8942 28.4056 16.8942 27.5803 17.7195C26.755 18.5448 26.755 19.8829 27.5803 20.7082C28.4056 21.5335 29.7437 21.5335 30.569 20.7082Z" fill="#F38DB3"/>
<path d="M21.2374 19.7827C22.371 19.7827 23.1048 20.9757 22.6005 21.9904C21.6494 23.9049 19.4992 25.2393 16.9984 25.2393C14.4977 25.2393 12.3474 23.9049 11.3963 21.9904C10.8921 20.9757 11.6259 19.7827 12.7595 19.7827H21.2374Z" fill="#333333"/>
<path d="M8.29169 15.2425C8.11131 15.0929 7.93707 14.935 7.77309 14.7669C7.06386 14.0475 6.21524 12.8647 6.55961 11.7988C6.82608 10.9748 7.79564 10.7309 8.57046 10.7821C8.99477 10.8108 9.40678 10.9338 9.79009 11.1183C9.92538 11.1839 10.0976 11.2618 10.2492 11.3602C10.3927 11.4524 10.5834 11.354 10.5916 11.1818C10.6264 10.4706 10.8785 9.72853 11.5181 9.38212C12.215 9.00495 12.9796 9.25503 13.492 9.81258C14.316 10.7083 14.232 11.9403 13.8917 13.0267C13.6519 13.7892 13.3465 14.5292 12.9816 15.2384C12.7807 15.6258 12.6086 16.0542 12.3175 16.3842C11.8071 16.9643 11.061 16.8188 10.4317 16.5359C9.6794 16.1977 8.93942 15.7713 8.29373 15.2384L8.29169 15.2425Z" fill="#ED1C24"/>
<path d="M25.7064 15.2425C25.8868 15.0929 26.061 14.935 26.225 14.7669C26.9342 14.0475 27.7828 12.8647 27.4384 11.7988C27.172 10.9748 26.2024 10.7309 25.4276 10.7821C25.0033 10.8108 24.5913 10.9338 24.208 11.1183C24.0727 11.1839 23.9005 11.2618 23.7488 11.3602C23.6053 11.4524 23.4147 11.354 23.4065 11.1818C23.3717 10.4706 23.1195 9.72853 22.48 9.38212C21.7831 9.00495 21.0185 9.25503 20.506 9.81258C19.682 10.7083 19.7661 11.9403 20.1063 13.0267C20.3461 13.7892 20.6516 14.5292 21.0164 15.2384C21.2173 15.6258 21.3895 16.0542 21.6806 16.3842C22.191 16.9643 22.9371 16.8188 23.5664 16.5359C24.3187 16.1977 25.0586 15.7713 25.7043 15.2384L25.7064 15.2425Z" fill="#ED1C24"/>
</svg>
