<svg width="35" height="34" viewBox="0 0 35 34" fill="none" xmlns="http://www.w3.org/2000/svg">
<path d="M25.0539 0H9.10036C4.11698 0 0.0771484 4.03982 0.0771484 9.02321V24.9768C0.0771484 29.9602 4.11698 34 9.10036 34H25.0539C30.0373 34 34.0771 29.9602 34.0771 24.9768V9.02321C34.0771 4.03982 30.0373 0 25.0539 0Z" fill="#FFC669"/>
<path d="M23.0427 18.5591C23.7683 18.5591 24.2972 19.2417 24.1229 19.9468C23.4117 22.8288 20.5256 24.9852 17.0757 24.9852C13.6259 24.9852 10.7419 22.8288 10.0285 19.9468C9.8543 19.2417 10.3832 18.5591 11.1088 18.5591H23.0407H23.0427Z" fill="#333333"/>
<path d="M11.6252 12.3255C11.9963 12.9568 12.1766 13.8649 11.6252 14.3445C11.1722 14.7381 10.4897 14.6212 9.89521 14.5515C8.39271 14.3814 6.83897 14.6909 5.51685 15.4248C5.43076 15.4719 5.34466 15.5231 5.24832 15.5395C5.05154 15.5744 4.84656 15.4596 4.74817 15.2854C4.56574 14.9677 4.73177 14.5413 5.02079 14.3138C5.30982 14.0862 5.68493 14.0104 6.04364 13.9407C7.5605 13.6476 9.13679 13.3545 10.6352 13.7275C10.7069 13.746 10.7828 13.7644 10.8545 13.746C11.0943 13.6804 11.0308 13.3176 10.8894 13.1126C10.3892 12.3992 9.57955 11.9606 8.75143 11.69C8.07295 11.4686 6.16663 11.4256 5.74642 10.8271C5.19298 10.0379 6.80412 9.60947 7.36167 9.64022C8.93181 9.72836 10.8484 10.9992 11.6273 12.3234L11.6252 12.3255Z" fill="#333333"/>
<path d="M22.5279 12.3255C22.1568 12.9568 21.9765 13.8649 22.5279 14.3445C22.9809 14.7381 23.6634 14.6212 24.2579 14.5515C25.7604 14.3814 27.3141 14.6909 28.6363 15.4248C28.7223 15.4719 28.8084 15.5231 28.9048 15.5395C29.1016 15.5744 29.3065 15.4596 29.4049 15.2854C29.5874 14.9677 29.4213 14.5413 29.1323 14.3138C28.8433 14.0862 28.4682 14.0104 28.1095 13.9407C26.5926 13.6476 25.0163 13.3545 23.5179 13.7275C23.4462 13.746 23.3703 13.7644 23.2986 13.746C23.0588 13.6804 23.1223 13.3176 23.2637 13.1126C23.7639 12.3992 24.5736 11.9606 25.4017 11.69C26.0802 11.4686 27.9865 11.4256 28.4067 10.8271C28.9601 10.0379 27.349 9.60947 26.7914 9.64022C25.2213 9.72836 23.3047 10.9992 22.5258 12.3234L22.5279 12.3255Z" fill="#333333"/>
</svg>
